<?xml version="1.0" encoding="UTF-8" standalone="no"?>
<!-- Created with Inkscape (http://www.inkscape.org/) -->

<svg
   xmlns:dc="http://purl.org/dc/elements/1.1/"
   xmlns:cc="http://creativecommons.org/ns#"
   xmlns:rdf="http://www.w3.org/1999/02/22-rdf-syntax-ns#"
   xmlns:svg="http://www.w3.org/2000/svg"
   xmlns="http://www.w3.org/2000/svg"
   xmlns:sodipodi="http://sodipodi.sourceforge.net/DTD/sodipodi-0.dtd"
   xmlns:inkscape="http://www.inkscape.org/namespaces/inkscape"
   width="1000"
   height="1600"
   id="svg2"
   version="1.1"
   inkscape:version="0.91 r13725"
   sodipodi:docname="GDS2.svg">
  <defs
     id="defs4" />
  <sodipodi:namedview
     id="base"
     pagecolor="#ffffff"
     bordercolor="#666666"
     borderopacity="1.0"
     inkscape:pageopacity="0.0"
     inkscape:pageshadow="2"
     inkscape:zoom="0.1984084"
     inkscape:cx="741.55101"
     inkscape:cy="482.91746"
     inkscape:document-units="px"
     inkscape:current-layer="layer1"
     showgrid="false"
     borderlayer="false"
     showborder="false"
     inkscape:showpageshadow="false"
     showguides="true"
     inkscape:guide-bbox="true"
     inkscape:snap-global="true"
     inkscape:snap-object-midpoints="true"
     inkscape:snap-center="true"
     inkscape:object-paths="false"
     inkscape:object-nodes="false"
     inkscape:window-width="783"
     inkscape:window-height="691"
     inkscape:window-x="619"
     inkscape:window-y="78"
     inkscape:window-maximized="0"
     inkscape:snap-nodes="true"
     fit-margin-top="0"
     fit-margin-left="0"
     fit-margin-right="0"
     fit-margin-bottom="0">
    <sodipodi:guide
       orientation="1,0"
       position="-1.0490417e-005,-1.0490417e-005"
       id="guide3777" />
    <sodipodi:guide
       orientation="1,0"
       position="999.99999,-1.0490417e-005"
       id="guide3779" />
    <sodipodi:guide
       orientation="1,0"
       position="499.99999,-500.00001"
       id="guide3781" />
    <sodipodi:guide
       orientation="0,1"
       position="-460.62957,799.99999"
       id="guide3785" />
    <sodipodi:guide
       orientation="0,1"
       position="-363.51735,406.28407"
       id="guide3789" />
    <sodipodi:guide
       orientation="0,1"
       position="218.19294,1600"
       id="guide3791" />
    <sodipodi:guide
       orientation="0,1"
       position="-242.43662,-1.0490417e-005"
       id="guide3793" />
    <inkscape:grid
       type="xygrid"
       id="grid3871"
       empspacing="5"
       visible="true"
       enabled="true"
       snapvisiblegridlinesonly="true"
       originx="-1.0490417e-005"
       originy="-1.0490417e-005" />
  </sodipodi:namedview>
  <metadata
     id="metadata7">
    <rdf:RDF>
      <cc:Work
         rdf:about="">
        <dc:format>image/svg+xml</dc:format>
        <dc:type
           rdf:resource="http://purl.org/dc/dcmitype/StillImage" />
        <dc:title></dc:title>
      </cc:Work>
    </rdf:RDF>
  </metadata>
  <g
     inkscape:groupmode="layer"
     id="layer2"
     inkscape:label="backCards"
     transform="translate(-1.0490417e-5,547.63781)" />
  <g
     inkscape:label="Layer 1"
     inkscape:groupmode="layer"
     id="layer1"
     transform="translate(-1.0490417e-5,547.63781)">
    <rect
       style="fill:#fbfbfb;fill-opacity:1;stroke:#999999;stroke-width:6.37388039;stroke-linecap:butt;stroke-linejoin:miter;stroke-miterlimit:4;stroke-dasharray:none;stroke-opacity:1"
       id="rect3007-7-1"
       width="993.6261"
       height="1593.6261"
       x="3.1869507"
       y="-544.45087"
       rx="60.373772"
       ry="61.035278" />
    <rect
       style="fill:none;stroke:#00b259;stroke-width:22.0216732;stroke-miterlimit:4;stroke-dasharray:none;stroke-opacity:1"
       id="rect4647-5-5-3-5-1"
       width="381.77835"
       height="381.77835"
       x="35.197262"
       y="148.18683"
       transform="matrix(0.8847019,-0.46615722,0.8847019,0.46615722,0,0)" />
    <rect
       style="fill:none;stroke:#00b259;stroke-width:22.0216732;stroke-miterlimit:4;stroke-dasharray:none;stroke-opacity:1"
       id="rect4647-5-5-2-3-3"
       width="381.77835"
       height="381.77835"
       x="-393.84277"
       y="577.22784"
       transform="matrix(0.8847019,-0.46615722,0.8847019,0.46615722,0,0)" />
    <path
       style="display:inline;fill:#00b259;fill-opacity:1;stroke:none"
       d="m 500.00034,-125.2977 -7.4062,3.907 0,348.124 7.4062,3.907 7.40631,-3.907 0,-348.124 -7.40631,-3.907 z m -22.1874,11.688 -14.7813,7.781 0,317 14.7813,7.781 0,-332.562 z m 44.37501,0 0,332.562 14.8124,-7.812 0,-316.938 -14.8124,-7.812 z m -73.96881,15.593998 -14.7812,7.781 0,285.812002 14.7812,7.782 0,-301.375002 z m 103.56251,0 0,301.375002 14.7813,-7.782 0,-285.812002 -14.7813,-7.781 z m -133.12501,15.562 -14.7813,7.813 0,254.625002 14.7813,7.812 0,-270.250002 z m 162.68751,0.03 0,270.187002 14.7812,-7.781 0,-254.625002 -14.7812,-7.781 z m -192.25001,15.562 -14.8125,7.813 0,223.437002 14.8125,7.813 0,-239.063002 z m 221.84381,0.03 0,239.000002 14.7812,-7.782 0,-223.437002 -14.7812,-7.781 z m -251.43761,15.562 -14.7812,7.781 0,192.313002 14.7812,7.781 0,-207.875002 z m 281.00001,0 0,207.875002 14.7813,-7.781 0,-192.313002 -14.7813,-7.781 z m -310.56241,15.563 -14.8126,7.812 0,161.125002 14.8126,7.813 0,-176.750002 z m 340.15621,0.03 0,176.688002 14.7812,-7.781 0,-161.125002 -14.7812,-7.782 z m -369.75,15.563 -14.7812,7.781 0,130.000002 14.7812,7.781 0,-145.562002 z m 399.3125,0.03 0,145.500002 14.7813,-7.781 0,-129.938002 -14.7813,-7.781 z m -428.875,15.5629999 -14.7813,7.781 0,98.8120021 14.7813,7.782 0,-114.3750021 z m 458.4375,0 0,114.3750021 14.8125,-7.813 0,-98.7500021 -14.8125,-7.812 z m -488.0312,15.5930001 -14.7813,7.782 0,67.625 14.7813,7.781 0,-83.188 z m 517.625,0 0,83.188 14.7812,-7.781 0,-67.625 -14.7812,-7.782 z m -547.1876,15.563 -14.7812,7.781 0,36.5 14.7812,7.781 0,-52.062 z m 576.75,0 0,52.062 14.7813,-7.812 0,-36.438 -14.7813,-7.812 z m -606.3437,15.594 -14.7813,7.781 0,5.312 14.7813,7.782 0,-20.875 z m 635.9375,0 0,20.875 14.7812,-7.813 0,-5.25 -14.7812,-7.812 z"
       id="rect4647-8-8-8-6"
       inkscape:connector-curvature="0" />
    <path
       style="display:inline;fill:#00b259;fill-opacity:1;stroke:none"
       d="m 500.00034,274.7023 -7.4062,3.907 0,348.12397 7.4062,3.907 7.40631,-3.907 0,-348.12397 -7.40631,-3.907 z m -22.1874,11.688 -14.7813,7.781 0,316.99997 14.7813,7.781 0,-332.56197 z m 44.37501,0 0,332.56197 14.8124,-7.812 0,-316.93797 -14.8124,-7.812 z m -73.96881,15.594 -14.7812,7.781 0,285.81197 14.7812,7.782 0,-301.37497 z m 103.56251,0 0,301.37497 14.7813,-7.782 0,-285.81197 -14.7813,-7.781 z m -133.12501,15.562 -14.7813,7.813 0,254.62497 14.7813,7.812 0,-270.24997 z m 162.68751,0.03 0,270.18697 14.7812,-7.781 0,-254.62497 -14.7812,-7.781 z m -192.25001,15.562 -14.8125,7.813 0,223.43697 14.8125,7.813 0,-239.06297 z m 221.84381,0.03 0,238.99997 14.7812,-7.782 0,-223.43697 -14.7812,-7.781 z m -251.43761,15.562 -14.7812,7.781 0,192.31297 14.7812,7.781 0,-207.87497 z m 281.00001,0 0,207.87497 14.7813,-7.781 0,-192.31297 -14.7813,-7.781 z m -310.56241,15.563 -14.8126,7.812 0,161.12497 14.8126,7.813 0,-176.74997 z m 340.15621,0.03 0,176.68797 14.7812,-7.781 0,-161.12497 -14.7812,-7.782 z m -369.75,15.563 -14.7812,7.781 0,129.99997 14.7812,7.781 0,-145.56197 z m 399.3125,0.03 0,145.49997 14.7813,-7.781 0,-129.93797 -14.7813,-7.781 z m -428.875,15.563 -14.7813,7.781 0,98.81197 14.7813,7.782 0,-114.37497 z m 458.4375,0 0,114.37497 14.8125,-7.813 0,-98.74997 -14.8125,-7.812 z m -488.0312,15.593 -14.7813,7.782 0,67.62497 14.7813,7.781 0,-83.18797 z m 517.625,0 0,83.18797 14.7812,-7.781 0,-67.62497 -14.7812,-7.782 z m -547.1876,15.563 -14.7812,7.781 0,36.49997 14.7812,7.781 0,-52.06197 z m 576.75,0 0,52.06197 14.7813,-7.812 0,-36.43797 -14.7813,-7.812 z m -606.3437,15.594 -14.7813,7.781 0,5.31197 14.7813,7.782 0,-20.87497 z m 635.9375,0 0,20.87497 14.7812,-7.813 0,-5.24997 -14.7812,-7.812 z"
       id="rect4647-8-86-1-3"
       inkscape:connector-curvature="0" />
  </g>
  <g
     inkscape:groupmode="layer"
     id="layer3"
     inkscape:label="stri[eys"
     style="display:inline"
     transform="translate(-1.0490417e-5,547.63781)" />
</svg>
