<?xml version="1.0" encoding="UTF-8" standalone="no"?>
<!-- Created with Inkscape (http://www.inkscape.org/) -->

<svg
   xmlns:dc="http://purl.org/dc/elements/1.1/"
   xmlns:cc="http://creativecommons.org/ns#"
   xmlns:rdf="http://www.w3.org/1999/02/22-rdf-syntax-ns#"
   xmlns:svg="http://www.w3.org/2000/svg"
   xmlns="http://www.w3.org/2000/svg"
   xmlns:sodipodi="http://sodipodi.sourceforge.net/DTD/sodipodi-0.dtd"
   xmlns:inkscape="http://www.inkscape.org/namespaces/inkscape"
   width="1000"
   height="1600"
   id="svg2"
   version="1.1"
   inkscape:version="0.91 r13725"
   sodipodi:docname="GDS3.svg">
  <defs
     id="defs4" />
  <sodipodi:namedview
     id="base"
     pagecolor="#ffffff"
     bordercolor="#666666"
     borderopacity="1.0"
     inkscape:pageopacity="0.0"
     inkscape:pageshadow="2"
     inkscape:zoom="0.1984084"
     inkscape:cx="618.54416"
     inkscape:cy="652.06131"
     inkscape:document-units="px"
     inkscape:current-layer="layer1"
     showgrid="false"
     borderlayer="false"
     showborder="false"
     inkscape:showpageshadow="false"
     showguides="true"
     inkscape:guide-bbox="true"
     inkscape:snap-global="true"
     inkscape:snap-object-midpoints="true"
     inkscape:snap-center="true"
     inkscape:object-paths="false"
     inkscape:object-nodes="false"
     inkscape:window-width="783"
     inkscape:window-height="691"
     inkscape:window-x="619"
     inkscape:window-y="78"
     inkscape:window-maximized="0"
     inkscape:snap-nodes="true"
     fit-margin-top="0"
     fit-margin-left="0"
     fit-margin-right="0"
     fit-margin-bottom="0">
    <sodipodi:guide
       orientation="1,0"
       position="-1.0490417e-005,-1.0490417e-005"
       id="guide3777" />
    <sodipodi:guide
       orientation="1,0"
       position="999.99999,-1.0490417e-005"
       id="guide3779" />
    <sodipodi:guide
       orientation="1,0"
       position="499.99999,-500.00001"
       id="guide3781" />
    <sodipodi:guide
       orientation="0,1"
       position="-460.62957,799.99999"
       id="guide3785" />
    <sodipodi:guide
       orientation="0,1"
       position="-363.51735,406.28407"
       id="guide3789" />
    <sodipodi:guide
       orientation="0,1"
       position="218.19294,1600"
       id="guide3791" />
    <sodipodi:guide
       orientation="0,1"
       position="-242.43662,-1.0490417e-005"
       id="guide3793" />
    <inkscape:grid
       type="xygrid"
       id="grid3871"
       empspacing="5"
       visible="true"
       enabled="true"
       snapvisiblegridlinesonly="true"
       originx="-1.0490417e-005"
       originy="-1.0490417e-005" />
  </sodipodi:namedview>
  <metadata
     id="metadata7">
    <rdf:RDF>
      <cc:Work
         rdf:about="">
        <dc:format>image/svg+xml</dc:format>
        <dc:type
           rdf:resource="http://purl.org/dc/dcmitype/StillImage" />
        <dc:title></dc:title>
      </cc:Work>
    </rdf:RDF>
  </metadata>
  <g
     inkscape:groupmode="layer"
     id="layer2"
     inkscape:label="backCards"
     transform="translate(-1.0490417e-5,547.63781)" />
  <g
     inkscape:label="Layer 1"
     inkscape:groupmode="layer"
     id="layer1"
     transform="translate(-1.0490417e-5,547.63781)">
    <rect
       style="fill:#fbfbfb;fill-opacity:1;stroke:#999999;stroke-width:6.37388039;stroke-linecap:butt;stroke-linejoin:miter;stroke-miterlimit:4;stroke-dasharray:none;stroke-opacity:1"
       id="rect3007-60-8"
       width="993.6261"
       height="1593.6261"
       x="3.1869507"
       y="-544.45087"
       rx="60.373772"
       ry="61.035278" />
    <rect
       style="fill:none;stroke:#00b259;stroke-width:22.0216732;stroke-miterlimit:4;stroke-dasharray:none;stroke-opacity:1"
       id="rect4647-5-5-3-4-0"
       width="381.77835"
       height="381.77835"
       x="250.04648"
       y="-66.66333"
       transform="matrix(0.8847019,-0.46615722,0.8847019,0.46615722,0,0)" />
    <rect
       style="fill:none;stroke:#00b259;stroke-width:22.0216732;stroke-miterlimit:4;stroke-dasharray:none;stroke-opacity:1"
       id="rect4647-5-5-2-9-8"
       width="381.77835"
       height="381.77835"
       x="-178.99358"
       y="362.37769"
       transform="matrix(0.8847019,-0.46615722,0.8847019,0.46615722,0,0)" />
    <rect
       style="fill:none;stroke:#00b259;stroke-width:22.0216732;stroke-miterlimit:4;stroke-dasharray:none;stroke-opacity:1"
       id="rect4647-5-5-1-7-0"
       width="381.77835"
       height="381.77835"
       x="-608.03265"
       y="791.41681"
       transform="matrix(0.8847019,-0.46615722,0.8847019,0.46615722,0,0)" />
    <path
       style="display:inline;fill:#00b259;fill-opacity:1;stroke:none"
       d="m 500.00004,-325.60544 -7.4062,3.907 0,348.123996 7.4062,3.907003 7.4063,-3.907003 0,-348.123996 -7.4063,-3.907 z m -22.1874,11.688 -14.7813,7.781 0,316.999996 14.7813,7.781 0,-332.561996 z m 44.375,0 0,332.561996 14.8124,-7.812 0,-316.937996 -14.8124,-7.812 z m -73.9688,15.594 -14.7812,7.781 0,285.8119959 14.7812,7.781 0,-301.3739959 z m 103.5625,0 0,301.3739959 14.7813,-7.781 0,-285.8119959 -14.7813,-7.781 z m -133.125,15.562 -14.7813,7.813 0,254.623996 14.7813,7.813 0,-270.249996 z m 162.6875,0.03 0,270.186996 14.7812,-7.781 0,-254.624996 -14.7812,-7.781 z m -192.25,15.563 -14.8125,7.812 0,223.436996 14.8125,7.813 0,-239.061996 z m 221.8438,0.03 0,238.999996 14.7812,-7.781 0,-223.436996 -14.7812,-7.782 z m -251.4376,15.563 -14.7812,7.781 0,192.312996 14.7812,7.781 0,-207.874996 z m 281,0 0,207.874996 14.7813,-7.781 0,-192.312996 -14.7813,-7.781 z m -310.5624,15.562 -14.8126,7.813 0,161.124996 14.8126,7.812 0,-176.749996 z m 340.1562,0.03 0,176.686996 14.7812,-7.781 0,-161.124996 -14.7812,-7.781 z m -369.75,15.562 -14.7812,7.781 0,129.999996 14.7812,7.781 0,-145.561996 z m 399.3125,0.03 0,145.499996 14.7813,-7.781 0,-129.937996 -14.7813,-7.781 z m -428.875,15.563 -14.7813,7.781 0,98.811996 14.7813,7.781 0,-114.373996 z m 458.4375,0 0,114.373996 14.8125,-7.812 0,-98.749996 -14.8125,-7.812 z m -488.0312,15.593 -14.7813,7.782 0,67.624 14.7813,7.782 0,-83.188 z m 517.625,0 0,83.188 14.7812,-7.782 0,-67.624 -14.7812,-7.782 z m -547.1876,15.563 -14.7812,7.781 0,36.5 14.7812,7.781 0,-52.062 z m 576.75,0 0,52.062 14.7813,-7.812 0,-36.438 -14.7813,-7.812 z m -606.3437,15.593 -14.7813,7.782 0,5.312 14.7813,7.781 0,-20.875 z m 635.9375,0 0,20.875 14.7812,-7.812 0,-5.25 -14.7812,-7.813 z"
       id="rect4647-8-8-6-8"
       inkscape:connector-curvature="0" />
    <path
       style="display:inline;fill:#00b259;fill-opacity:1;stroke:none"
       d="m 500.00004,74.394559 -7.4062,3.906 0,348.125001 7.4062,3.907 7.4063,-3.907 0,-348.125001 -7.4063,-3.906 z m -22.1874,11.688 -14.7813,7.781 0,317.000001 14.7813,7.781 0,-332.562001 z m 44.375,0 0,332.562001 14.8124,-7.812 0,-316.938001 -14.8124,-7.812 z m -73.9688,15.593001 -14.7812,7.782 0,285.812 14.7812,7.781 0,-301.375 z m 103.5625,0 0,301.375 14.7813,-7.781 0,-285.812 -14.7813,-7.782 z m -133.125,15.563 -14.7813,7.812 0,254.625 14.7813,7.813 0,-270.25 z m 162.6875,0.03 0,270.187 14.7812,-7.781 0,-254.625 -14.7812,-7.781 z m -192.25,15.562 -14.8125,7.813 0,223.437 14.8125,7.813 0,-239.063 z m 221.8438,0.03 0,239 14.7812,-7.781 0,-223.437 -14.7812,-7.782 z m -251.4376,15.563 -14.7812,7.781 0,192.313 14.7812,7.781 0,-207.875 z m 281,0 0,207.875 14.7813,-7.781 0,-192.313 -14.7813,-7.781 z m -310.5624,15.562 -14.8126,7.813 0,161.125 14.8126,7.812 0,-176.75 z m 340.1562,0.03 0,176.688 14.7812,-7.781 0,-161.125 -14.7812,-7.782 z m -369.75,15.563 -14.7812,7.781 0,130 14.7812,7.781 0,-145.562 z m 399.3125,0.03 0,145.5 14.7813,-7.781 0,-129.938 -14.7813,-7.781 z m -428.875,15.562 -14.7813,7.782 0,98.812 14.7813,7.781 0,-114.375 z m 458.4375,0 0,114.375 14.8125,-7.812 0,-98.75 -14.8125,-7.813 z m -488.0312,15.594 -14.7813,7.781 0,67.625 14.7813,7.782 0,-83.188 z m 517.625,0 0,83.188 14.7812,-7.782 0,-67.625 -14.7812,-7.781 z m -547.1876,15.563 -14.7812,7.781 0,36.5 14.7812,7.781 0,-52.062 z m 576.75,0 0,52.062 14.7813,-7.812 0,-36.438 -14.7813,-7.812 z m -606.3437,15.593 -14.7813,7.782 0,5.312 14.7813,7.781 0,-20.875 z m 635.9375,0 0,20.875 14.7812,-7.812 0,-5.25 -14.7812,-7.813 z"
       id="rect4647-8-86-3-7"
       inkscape:connector-curvature="0" />
    <path
       style="display:inline;fill:#00b259;fill-opacity:1;stroke:none"
       d="m 500.00004,474.39457 -7.4062,3.906 0,348.125 7.4062,3.907 7.4063,-3.907 0,-348.125 -7.4063,-3.906 z m -22.1874,11.688 -14.7813,7.781 0,317 14.7813,7.781 0,-332.562 z m 44.375,0 0,332.562 14.8124,-7.812 0,-316.938 -14.8124,-7.812 z m -73.9688,15.593 -14.7812,7.782 0,285.812 14.7812,7.781 0,-301.375 z m 103.5625,0 0,301.375 14.7813,-7.781 0,-285.812 -14.7813,-7.782 z m -133.125,15.563 -14.7813,7.812 0,254.625 14.7813,7.813 0,-270.25 z m 162.6875,0.03 0,270.187 14.7812,-7.781 0,-254.625 -14.7812,-7.781 z m -192.25,15.562 -14.8125,7.813 0,223.437 14.8125,7.813 0,-239.063 z m 221.8438,0.03 0,239 14.7812,-7.781 0,-223.437 -14.7812,-7.782 z m -251.4376,15.563 -14.7812,7.781 0,192.313 14.7812,7.781 0,-207.875 z m 281,0 0,207.875 14.7813,-7.781 0,-192.313 -14.7813,-7.781 z m -310.5624,15.562 -14.8126,7.813 0,161.125 14.8126,7.812 0,-176.75 z m 340.1562,0.03 0,176.688 14.7812,-7.781 0,-161.125 -14.7812,-7.782 z m -369.75,15.563 -14.7812,7.781 0,130 14.7812,7.781 0,-145.562 z m 399.3125,0.03 0,145.5 14.7813,-7.781 0,-129.938 -14.7813,-7.781 z m -428.875,15.562 -14.7813,7.782 0,98.812 14.7813,7.781 0,-114.375 z m 458.4375,0 0,114.375 14.8125,-7.812 0,-98.75 -14.8125,-7.813 z m -488.0312,15.594 -14.7813,7.781 0,67.625 14.7813,7.782 0,-83.188 z m 517.625,0 0,83.188 14.7812,-7.782 0,-67.625 -14.7812,-7.781 z m -547.1876,15.563 -14.7812,7.781 0,36.5 14.7812,7.781 0,-52.062 z m 576.75,0 0,52.062 14.7813,-7.812 0,-36.438 -14.7813,-7.812 z m -606.3437,15.593 -14.7813,7.782 0,5.312 14.7813,7.781 0,-20.875 z m 635.9375,0 0,20.875 14.7812,-7.812 0,-5.25 -14.7812,-7.813 z"
       id="rect4647-8-2-8-7"
       inkscape:connector-curvature="0" />
  </g>
  <g
     inkscape:groupmode="layer"
     id="layer3"
     inkscape:label="stri[eys"
     style="display:inline"
     transform="translate(-1.0490417e-5,547.63781)" />
</svg>
