<?xml version="1.0" encoding="UTF-8" standalone="no"?>
<!-- Created with Inkscape (http://www.inkscape.org/) -->

<svg
   xmlns:dc="http://purl.org/dc/elements/1.1/"
   xmlns:cc="http://creativecommons.org/ns#"
   xmlns:rdf="http://www.w3.org/1999/02/22-rdf-syntax-ns#"
   xmlns:svg="http://www.w3.org/2000/svg"
   xmlns="http://www.w3.org/2000/svg"
   xmlns:sodipodi="http://sodipodi.sourceforge.net/DTD/sodipodi-0.dtd"
   xmlns:inkscape="http://www.inkscape.org/namespaces/inkscape"
   width="1000"
   height="1600"
   id="svg2"
   version="1.1"
   inkscape:version="0.91 r13725"
   sodipodi:docname="GWE1.svg">
  <defs
     id="defs4" />
  <sodipodi:namedview
     id="base"
     pagecolor="#ffffff"
     bordercolor="#666666"
     borderopacity="1.0"
     inkscape:pageopacity="0.0"
     inkscape:pageshadow="2"
     inkscape:zoom="0.0992042"
     inkscape:cx="-1250.3052"
     inkscape:cy="319.96965"
     inkscape:document-units="px"
     inkscape:current-layer="layer1"
     showgrid="false"
     borderlayer="false"
     showborder="false"
     inkscape:showpageshadow="false"
     showguides="true"
     inkscape:guide-bbox="true"
     inkscape:snap-global="true"
     inkscape:snap-object-midpoints="true"
     inkscape:snap-center="true"
     inkscape:object-paths="false"
     inkscape:object-nodes="false"
     inkscape:window-width="783"
     inkscape:window-height="691"
     inkscape:window-x="619"
     inkscape:window-y="78"
     inkscape:window-maximized="0"
     inkscape:snap-nodes="true"
     fit-margin-top="0"
     fit-margin-left="0"
     fit-margin-right="0"
     fit-margin-bottom="0">
    <sodipodi:guide
       orientation="1,0"
       position="-1.0490417e-005,-1.0490417e-005"
       id="guide3777" />
    <sodipodi:guide
       orientation="1,0"
       position="999.99999,-1.0490417e-005"
       id="guide3779" />
    <sodipodi:guide
       orientation="1,0"
       position="499.99999,-500.00001"
       id="guide3781" />
    <sodipodi:guide
       orientation="0,1"
       position="-460.62957,799.99999"
       id="guide3785" />
    <sodipodi:guide
       orientation="0,1"
       position="-363.51735,406.28407"
       id="guide3789" />
    <sodipodi:guide
       orientation="0,1"
       position="218.19294,1600"
       id="guide3791" />
    <sodipodi:guide
       orientation="0,1"
       position="-242.43662,-1.0490417e-005"
       id="guide3793" />
    <inkscape:grid
       type="xygrid"
       id="grid3871"
       empspacing="5"
       visible="true"
       enabled="true"
       snapvisiblegridlinesonly="true"
       originx="-1.0490417e-005"
       originy="-1.0490417e-005" />
  </sodipodi:namedview>
  <metadata
     id="metadata7">
    <rdf:RDF>
      <cc:Work
         rdf:about="">
        <dc:format>image/svg+xml</dc:format>
        <dc:type
           rdf:resource="http://purl.org/dc/dcmitype/StillImage" />
        <dc:title></dc:title>
      </cc:Work>
    </rdf:RDF>
  </metadata>
  <g
     inkscape:groupmode="layer"
     id="layer2"
     inkscape:label="backCards"
     transform="translate(-1.0490417e-5,547.63781)" />
  <g
     inkscape:label="Layer 1"
     inkscape:groupmode="layer"
     id="layer1"
     transform="translate(-1.0490417e-5,547.63781)">
    <rect
       style="fill:#fbfbfb;fill-opacity:1;stroke:#999999;stroke-width:6.37388039;stroke-linecap:butt;stroke-linejoin:miter;stroke-miterlimit:4;stroke-dasharray:none;stroke-opacity:1"
       id="rect3007-9-8"
       width="993.6261"
       height="1593.6261"
       x="3.1869507"
       y="-544.45087"
       rx="60.373772"
       ry="61.035278" />
    <path
       style="fill:#000000;fill-opacity:0;stroke:#00b259;stroke-width:20;stroke-miterlimit:4;stroke-dasharray:none;stroke-opacity:1"
       d="m 148.36646,273.73531 c 0.745,-8.625 5.061,-31.077 7.295,-37.945 0.783,-2.408 2.626,-8.318 4.094,-13.134 3.702,-12.143 8.399,-22.769 15.927,-36.036 1.855,-3.269 4.233,-7.498 5.284,-9.399 1.052,-1.901 2.826,-4.508 3.942,-5.794 1.116,-1.286 3.365,-4.626 4.999,-7.423 4.638,-7.941 32.925,-36.032 40.701,-40.418 1.59,-0.897 4.177,-2.484 5.749,-3.526 33.382,-22.140998 73.994,-29.232998 135.301,-23.626998 8.429,0.771 32.461,5.646998 44.877,9.106998 4.415,1.229 10.325,2.878 13.135,3.664 2.809,0.785 7.242,2.118 9.851,2.961 2.608,0.844 6.22,2.011 8.027,2.594 1.806,0.583 5.411,1.7 8.012,2.483 2.6,0.782 6.377,2.221 8.391,3.197 2.015,0.975 5.634,2.479 8.042,3.34 2.408,0.862 6.149,2.198 8.313,2.97 2.164,0.772 4.341,1.74 4.838,2.152 0.497,0.412 3.652,1.68 7.011,2.817 3.359,1.137 8.078,3.059 10.486,4.271 2.408,1.212 5.479,2.442 6.826,2.734 2.224,0.482 5.326,1.67 11.416,4.375 1.204,0.534 7.115,2.529 13.135,4.432 9.631,3.045 16.791,4.808 35.433,8.725 17.557,3.69 50.823,3.49 69.295,-0.416 13.943,-2.949 16.517,-3.569 22.242,-5.359 25.111,-7.851 46.564,-17.934 66.649,-31.325 3.879,-2.586 8.201,-5.28 9.606,-5.986 1.404,-0.706 4.524,-2.728 6.932,-4.493 32.289,-23.667998 58.469,-27.236998 77.189,-10.520998 9.309,8.311998 21.687,25.643998 21.687,30.366998 0,1.393 3.494,12.056 4.282,13.07 0.341,0.438 1.032,3.899 1.536,7.692 0.505,3.793 1.411,8.226 2.013,9.851 2.19,5.908 1.796,46.421 -0.53,54.399 -0.409,1.405 -1.247,5.509 -1.862,9.122 -0.615,3.612 -1.893,9.03 -2.841,12.04 -0.948,3.01 -2.621,8.428 -3.719,12.04 -1.098,3.612 -2.224,6.896 -2.503,7.297 -0.279,0.401 -1.255,2.864 -2.167,5.473 -2.845,8.13 -15.434,32.963 -19.212,37.897 -1.977,2.582 -4.569,6.359 -5.759,8.392 -6.803,11.624 -24.664,31.889 -36.736,41.683 -3.612,2.93 -7.553,6.166 -8.757,7.191 -3.759,3.2 -6.039,4.807 -6.821,4.807 -0.415,0 -2.826,1.567 -5.358,3.482 -8.624,6.523 -27.675,15.162 -47.292,21.447 -15.204,4.872 -18.313,5.692 -25.905,6.84 -4.014,0.607 -9.267,1.576 -11.675,2.155 -14.947,3.588 -60.63,4.174 -86.106,1.104 -30.989,-3.735 -61.797,-10.886 -80.41,-18.664 -3.289,-1.375 -6.445,-2.499 -7.012,-2.499 -0.568,0 -2.803,-0.941 -4.967,-2.091 -2.163,-1.15 -6.396,-3.159 -9.406,-4.466 -3.01,-1.307 -5.93,-2.747 -6.488,-3.2 -1.549,-1.257 -18.074,-6.956 -23.43,-8.08 -2.609,-0.547 -6.76,-1.675 -9.226,-2.506 -10.56,-3.56 -51.359,-3.635 -66.299,-0.122 -6.389,1.502 -8.16,1.976 -19.086,5.105 -2.872,0.822 -5.588,1.495 -6.036,1.495 -0.894,0 -11.954,4.147 -18.296,6.86 -6.84,2.926 -11.933,4.912 -14.594,5.692 -1.405,0.412 -3.375,1.323 -4.379,2.026 -1.003,0.702 -3.302,1.932 -5.108,2.733 -1.806,0.801 -7.88,4.017 -13.499,7.146 -5.619,3.129 -11.53,6.351 -13.135,7.16 -4.423,2.229 -13.677,7.799 -15.324,9.225 -0.803,0.695 -4.415,3.059 -8.027,5.254 -19.386,11.78 -35.228,14.191 -53.497,8.142 -10.463,-3.464 -22.127,-11.96 -28.788,-20.969 -1.511,-2.044 -3.719,-4.914 -4.906,-6.378 -2.147,-2.65 -6.603,-10.741 -8.983,-16.31 -0.686,-1.605 -1.705,-3.74 -2.265,-4.743 -1.462,-2.622 -6.821,-19.223 -8.01,-24.81 -0.555,-2.609 -1.37,-6.221 -1.812,-8.027 -2.676,-10.941 -3.84,-40.787 -2.29,-58.742 z"
       id="path3808-48-8-3-5-5"
       inkscape:connector-curvature="0" />
  </g>
  <g
     inkscape:groupmode="layer"
     id="layer3"
     inkscape:label="stri[eys"
     style="display:inline"
     transform="translate(-1.0490417e-5,547.63781)" />
</svg>
