<?xml version="1.0" encoding="UTF-8" standalone="no"?>
<!-- Created with Inkscape (http://www.inkscape.org/) -->

<svg
   xmlns:dc="http://purl.org/dc/elements/1.1/"
   xmlns:cc="http://creativecommons.org/ns#"
   xmlns:rdf="http://www.w3.org/1999/02/22-rdf-syntax-ns#"
   xmlns:svg="http://www.w3.org/2000/svg"
   xmlns="http://www.w3.org/2000/svg"
   xmlns:sodipodi="http://sodipodi.sourceforge.net/DTD/sodipodi-0.dtd"
   xmlns:inkscape="http://www.inkscape.org/namespaces/inkscape"
   width="1000"
   height="1600"
   id="svg2"
   version="1.1"
   inkscape:version="0.91 r13725"
   sodipodi:docname="GWS3.svg">
  <defs
     id="defs4" />
  <sodipodi:namedview
     id="base"
     pagecolor="#ffffff"
     bordercolor="#666666"
     borderopacity="1.0"
     inkscape:pageopacity="0.0"
     inkscape:pageshadow="2"
     inkscape:zoom="0.14029593"
     inkscape:cx="1153.8867"
     inkscape:cy="991.14267"
     inkscape:document-units="px"
     inkscape:current-layer="layer1"
     showgrid="false"
     borderlayer="false"
     showborder="false"
     inkscape:showpageshadow="false"
     showguides="true"
     inkscape:guide-bbox="true"
     inkscape:snap-global="true"
     inkscape:snap-object-midpoints="true"
     inkscape:snap-center="true"
     inkscape:object-paths="false"
     inkscape:object-nodes="false"
     inkscape:window-width="783"
     inkscape:window-height="691"
     inkscape:window-x="789"
     inkscape:window-y="44"
     inkscape:window-maximized="0"
     inkscape:snap-nodes="true"
     fit-margin-top="0"
     fit-margin-left="0"
     fit-margin-right="0"
     fit-margin-bottom="0">
    <sodipodi:guide
       orientation="1,0"
       position="-0.065621614,0.080616951"
       id="guide3777" />
    <sodipodi:guide
       orientation="1,0"
       position="999.93438,0.080616951"
       id="guide3779" />
    <sodipodi:guide
       orientation="1,0"
       position="499.93438,-499.91938"
       id="guide3781" />
    <sodipodi:guide
       orientation="0,1"
       position="-460.69518,800.08062"
       id="guide3785" />
    <sodipodi:guide
       orientation="0,1"
       position="-363.58296,406.3647"
       id="guide3789" />
    <sodipodi:guide
       orientation="0,1"
       position="218.12733,1600.0806"
       id="guide3791" />
    <sodipodi:guide
       orientation="0,1"
       position="-242.50223,0.080616951"
       id="guide3793" />
    <inkscape:grid
       type="xygrid"
       id="grid3871"
       empspacing="5"
       visible="true"
       enabled="true"
       snapvisiblegridlinesonly="true"
       originx="-0.065621614"
       originy="0.080616951" />
  </sodipodi:namedview>
  <metadata
     id="metadata7">
    <rdf:RDF>
      <cc:Work
         rdf:about="">
        <dc:format>image/svg+xml</dc:format>
        <dc:type
           rdf:resource="http://purl.org/dc/dcmitype/StillImage" />
        <dc:title></dc:title>
      </cc:Work>
    </rdf:RDF>
  </metadata>
  <g
     inkscape:groupmode="layer"
     id="layer2"
     inkscape:label="backCards"
     transform="translate(-0.06562161,547.55718)" />
  <g
     inkscape:label="Layer 1"
     inkscape:groupmode="layer"
     id="layer1"
     transform="translate(-0.06562161,547.55718)">
    <rect
       style="fill:#fbfbfb;fill-opacity:1;stroke:#999999;stroke-width:6.37388039;stroke-linecap:butt;stroke-linejoin:miter;stroke-miterlimit:4;stroke-dasharray:none;stroke-opacity:1"
       id="rect3007-1-5"
       width="993.6261"
       height="1593.6261"
       x="3.2525618"
       y="-544.37024"
       rx="60.373772"
       ry="61.035278" />
    <path
       style="fill:#000000;fill-opacity:0;stroke:#00b259;stroke-width:20;stroke-miterlimit:4;stroke-dasharray:none;stroke-opacity:1"
       d="m 148.43284,-126.18662 c 0.7445,-8.625 5.0609,-31.077 7.2947,-37.945 0.7833,-2.408 2.6256,-8.318 4.0941,-13.134 3.7023,-12.143 8.3986,-22.769 15.9269,-36.036 1.8547,-3.269 4.2327,-7.498 5.2843,-9.399 1.0517,-1.901 2.8253,-4.508 3.9414,-5.794 1.1162,-1.286 3.3658,-4.626 4.9993,-7.423 4.6378,-7.941 32.925,-36.032 40.7011,-40.418 1.5899,-0.897 4.177,-2.484 5.7489,-3.526 33.3818,-22.141 73.994,-29.233 135.3006,-23.627 8.4293,0.771 32.4611,5.647 44.8772,9.107 4.4148,1.229 10.3254,2.878 13.1348,3.664 2.8094,0.785 7.2424,2.118 9.8511,2.961 2.6087,0.844 6.2208,2.011 8.0269,2.594 1.806,0.583 5.4115,1.7 8.0122,2.483 2.6007,0.782 6.377,2.221 8.3917,3.197 2.0147,0.975 5.6333,2.479 8.0414,3.34 2.408,0.862 6.1489,2.198 8.3132,2.97 2.1642,0.772 4.3413,1.74 4.8379,2.152 0.4967,0.412 3.6516,1.68 7.0108,2.817 3.3592,1.137 8.0779,3.059 10.4859,4.271 2.4081,1.212 5.4797,2.442 6.826,2.734 2.2241,0.482 5.3263,1.67 11.4168,4.375 1.204,0.534 7.1147,2.529 13.1348,4.432 9.631,3.045 16.7909,4.808 35.4329,8.725 17.5571,3.69 50.8233,3.49 69.2946,-0.416 13.9437,-2.949 16.5174,-3.569 22.2422,-5.359 25.1113,-7.851 46.564,-17.934 66.6492,-31.325 3.8784,-2.586 8.2009,-5.28 9.6056,-5.986 1.4047,-0.706 4.5242,-2.728 6.9323,-4.493 32.2885,-23.668 58.469,-27.237 77.189,-10.521 9.3093,8.312 21.6868,25.644 21.6868,30.367 0,1.393 3.4939,12.056 4.2826,13.07 0.3401,0.438 1.0312,3.899 1.5358,7.692 0.5046,3.793 1.4104,8.226 2.0127,9.851 2.1905,5.908 1.7958,46.421 -0.53,54.399 -0.4094,1.405 -1.2474,5.509 -1.8621,9.122 -0.6147,3.612 -1.893,9.03 -2.8408,12.04 -0.9477,3.01 -2.6212,8.428 -3.719,12.04 -1.0977,3.612 -2.2243,6.896 -2.5034,7.297 -0.2791,0.401 -1.2543,2.864 -2.1671,5.473 -2.8443,8.13 -15.4334,32.963 -19.2114,37.897 -1.9775,2.581998 -4.569,6.358998 -5.7589,8.391998 -6.8033,11.624 -24.664,31.889 -36.7367,41.683 -3.612,2.93 -7.5525,6.166 -8.7565,7.191 -3.7586,3.2 -6.0393,4.807 -6.8213,4.807 -0.4143,0 -2.8253,1.567 -5.3577,3.482 -8.6245,6.523 -27.6749,15.162 -47.2924,21.447 -15.2036,4.872 -18.3125,5.6919998 -25.9048,6.8399998 -4.0134,0.607 -9.2673,1.576 -11.6753,2.155 -14.9461,3.588 -60.6295,4.174 -86.1059,1.104 -30.9891,-3.735 -61.7969,-10.8859998 -80.4101,-18.6639998 -3.2887,-1.375 -6.4442,-2.499 -7.0119,-2.499 -0.5679,0 -2.8026,-0.941 -4.9662,-2.091 -2.1635,-1.15 -6.3965,-3.16 -9.4065,-4.466 -3.0101,-1.307 -5.9297,-2.747 -6.488,-3.2 -1.5489,-1.257 -18.0735,-6.956 -23.4302,-8.08 -2.6087,-0.547 -6.7601,-1.675 -9.2253,-2.506 -10.56,-3.56 -51.3598,-3.635 -66.2998,-0.122 -6.3887,1.502 -8.16,1.976 -19.0857,5.105 -2.8717,0.822 -5.5879,1.495 -6.0359,1.495 -0.8944,0 -11.9543,4.147 -18.2962,6.86 -6.8401,2.925 -11.9329,4.912 -14.5942,5.692 -1.4047,0.412 -3.3749,1.323 -4.3783,2.026 -1.0033,0.702 -3.3019,1.932 -5.1079,2.733 -1.8061,0.801 -7.8809,4.016 -13.4997,7.146 -5.6188,3.129 -11.5294,6.3509998 -13.1348,7.1599998 -4.4231,2.229 -13.6768,7.799 -15.3239,9.22499997 -0.8027,0.69500003 -4.4148,3.05900003 -8.0268,5.25400003 -19.3863,11.7800002 -35.2285,14.1910002 -53.4973,8.1420002 -10.4625,-3.464 -22.1267,-11.9600002 -28.7884,-20.9690002 -1.5109,-2.044 -3.7182,-4.9139998 -4.9051,-6.3779998 -2.147,-2.65 -6.6039,-10.741 -8.9839,-16.31 -0.6859,-1.605 -1.705,-3.74 -2.2645,-4.743 -1.4618,-2.622 -6.8213,-19.223 -8.0098,-24.81 -0.555,-2.609 -1.3705,-6.221 -1.8123,-8.027 -2.6764,-10.941 -3.8398,-40.786998 -2.2897,-58.741998 z"
       id="path3808-48-95-3"
       inkscape:connector-curvature="0" />
    <path
       style="fill:#000000;fill-opacity:0;stroke:#00b259;stroke-width:20;stroke-miterlimit:4;stroke-dasharray:none;stroke-opacity:1"
       d="m 148.43284,273.81338 c 0.7445,-8.625 5.0609,-31.077 7.2947,-37.945 0.7833,-2.408 2.6256,-8.318 4.0941,-13.134 3.7023,-12.143 8.3986,-22.769 15.9269,-36.036 1.8547,-3.269 4.2327,-7.498 5.2843,-9.399 1.0517,-1.901 2.8253,-4.508 3.9414,-5.794 1.1162,-1.286 3.3658,-4.626 4.9993,-7.423 4.6378,-7.941 32.925,-36.032 40.7011,-40.418 1.5899,-0.897 4.177,-2.484 5.7489,-3.526 33.3818,-22.141002 73.994,-29.233002 135.3006,-23.627002 8.4293,0.771 32.4611,5.647002 44.8772,9.107002 4.4148,1.229 10.3254,2.878 13.1348,3.664 2.8094,0.785 7.2424,2.118 9.8511,2.961 2.6087,0.844 6.2208,2.011 8.0269,2.594 1.806,0.582 5.4115,1.7 8.0122,2.483 2.6007,0.782 6.377,2.221 8.3917,3.197 2.0147,0.975 5.6333,2.479 8.0414,3.34 2.408,0.862 6.1489,2.198 8.3132,2.97 2.1642,0.771 4.3413,1.74 4.8379,2.152 0.4967,0.412 3.6516,1.68 7.0108,2.817 3.3592,1.137 8.0779,3.059 10.4859,4.271 2.4081,1.212 5.4797,2.442 6.826,2.734 2.2241,0.482 5.3263,1.67 11.4168,4.375 1.204,0.534 7.1147,2.529 13.1348,4.432 9.631,3.045 16.7909,4.808 35.4329,8.725 17.5571,3.69 50.8233,3.49 69.2946,-0.416 13.9437,-2.949 16.5174,-3.569 22.2422,-5.359 25.1113,-7.851 46.564,-17.934 66.6492,-31.325 3.8784,-2.586 8.2009,-5.28 9.6056,-5.986 1.4047,-0.706 4.5242,-2.728 6.9323,-4.493 32.2885,-23.668002 58.469,-27.237002 77.189,-10.521002 9.3093,8.312002 21.6868,25.644002 21.6868,30.367002 0,1.393 3.4939,12.056 4.2826,13.07 0.3401,0.437 1.0312,3.899 1.5358,7.692 0.5046,3.793 1.4104,8.226 2.0127,9.851 2.1905,5.908 1.7958,46.421 -0.53,54.399 -0.4094,1.405 -1.2474,5.509 -1.8621,9.122 -0.6147,3.612 -1.893,9.03 -2.8408,12.04 -0.9477,3.01 -2.6212,8.428 -3.719,12.04 -1.0977,3.612 -2.2243,6.896 -2.5034,7.297 -0.2791,0.401 -1.2543,2.864 -2.1671,5.473 -2.8443,8.13 -15.4334,32.963 -19.2114,37.897 -1.9775,2.582 -4.569,6.359 -5.7589,8.392 -6.8033,11.624 -24.664,31.889 -36.7367,41.683 -3.612,2.93 -7.5525,6.166 -8.7565,7.191 -3.7586,3.2 -6.0393,4.807 -6.8213,4.807 -0.4143,0 -2.8253,1.567 -5.3577,3.482 -8.6245,6.523 -27.6749,15.162 -47.2924,21.447 -15.2036,4.872 -18.3125,5.692 -25.9048,6.84 -4.0134,0.607 -9.2673,1.576 -11.6753,2.155 -14.9461,3.588 -60.6295,4.174 -86.1059,1.104 -30.9891,-3.735 -61.7969,-10.886 -80.4101,-18.664 -3.2887,-1.375 -6.4442,-2.499 -7.0119,-2.499 -0.5679,0 -2.8026,-0.941 -4.9662,-2.091 -2.1635,-1.15 -6.3965,-3.16 -9.4065,-4.466 -3.0101,-1.307 -5.9297,-2.747 -6.488,-3.2 -1.5489,-1.257 -18.0735,-6.956 -23.4302,-8.08 -2.6087,-0.547 -6.7601,-1.675 -9.2253,-2.506 -10.56,-3.56 -51.3598,-3.635 -66.2998,-0.122 -6.3887,1.502 -8.16,1.976 -19.0857,5.105 -2.8717,0.822 -5.5879,1.495 -6.0359,1.495 -0.8944,0 -11.9543,4.147 -18.2962,6.86 -6.8401,2.925 -11.9329,4.912 -14.5942,5.692 -1.4047,0.412 -3.3749,1.323 -4.3783,2.026 -1.0033,0.702 -3.3019,1.932 -5.1079,2.733 -1.8061,0.801 -7.8809,4.016 -13.4997,7.146 -5.6188,3.129 -11.5294,6.351 -13.1348,7.16 -4.4231,2.229 -13.6768,7.799 -15.3239,9.225 -0.8027,0.695 -4.4148,3.059 -8.0268,5.254 -19.3863,11.78 -35.2285,14.191 -53.4973,8.142 -10.4625,-3.464 -22.1267,-11.96 -28.7884,-20.969 -1.5109,-2.044 -3.7182,-4.914 -4.9051,-6.378 -2.147,-2.65 -6.6039,-10.741 -8.9839,-16.31 -0.6859,-1.605 -1.705,-3.74 -2.2645,-4.743 -1.4618,-2.622 -6.8213,-19.223 -8.0098,-24.81 -0.555,-2.609 -1.3705,-6.221 -1.8123,-8.027 -2.6764,-10.941 -3.8398,-40.787 -2.2897,-58.742 z"
       id="path3808-48-9-6-2"
       inkscape:connector-curvature="0" />
    <path
       style="fill:#000000;fill-opacity:0;stroke:#00b259;stroke-width:20;stroke-miterlimit:4;stroke-dasharray:none;stroke-opacity:1"
       d="m 148.43284,673.81337 c 0.7445,-8.625 5.0609,-31.077 7.2947,-37.945 0.7833,-2.408 2.6256,-8.318 4.0941,-13.134 3.7023,-12.143 8.3986,-22.769 15.9269,-36.036 1.8547,-3.269 4.2327,-7.498 5.2843,-9.399 1.0517,-1.901 2.8253,-4.508 3.9414,-5.794 1.1162,-1.286 3.3658,-4.626 4.9993,-7.423 4.6378,-7.941 32.925,-36.032 40.7011,-40.418 1.5899,-0.897 4.177,-2.484 5.7489,-3.526 33.3818,-22.141 73.994,-29.233 135.3006,-23.627 8.4293,0.771 32.4611,5.647 44.8772,9.107 4.4148,1.229 10.3254,2.878 13.1348,3.664 2.8094,0.785 7.2424,2.118 9.8511,2.961 2.6087,0.844 6.2208,2.011 8.0269,2.594 1.806,0.582 5.4115,1.7 8.0122,2.483 2.6007,0.782 6.377,2.221 8.3917,3.197 2.0147,0.975 5.6333,2.479 8.0414,3.34 2.408,0.862 6.1489,2.198 8.3132,2.97 2.1642,0.771 4.3413,1.74 4.8379,2.152 0.4967,0.412 3.6516,1.68 7.0108,2.817 3.3592,1.137 8.0779,3.059 10.4859,4.271 2.4081,1.212 5.4797,2.442 6.826,2.734 2.2241,0.482 5.3263,1.67 11.4168,4.375 1.204,0.534 7.1147,2.529 13.1348,4.432 9.631,3.045 16.7909,4.808 35.4329,8.725 17.5571,3.69 50.8233,3.49 69.2946,-0.416 13.9437,-2.949 16.5174,-3.569 22.2422,-5.359 25.1113,-7.851 46.564,-17.934 66.6492,-31.325 3.8784,-2.586 8.2009,-5.28 9.6056,-5.986 1.4047,-0.706 4.5242,-2.728 6.9323,-4.493 32.2885,-23.668 58.469,-27.237 77.189,-10.521 9.3093,8.312 21.6868,25.644 21.6868,30.367 0,1.393 3.4939,12.056 4.2826,13.07 0.3401,0.437 1.0312,3.899 1.5358,7.692 0.5046,3.793 1.4104,8.226 2.0127,9.851 2.1905,5.908 1.7958,46.421 -0.53,54.399 -0.4094,1.405 -1.2474,5.509 -1.8621,9.122 -0.6147,3.612 -1.893,9.03 -2.8408,12.04 -0.9477,3.01 -2.6212,8.428 -3.719,12.04 -1.0977,3.612 -2.2243,6.896 -2.5034,7.297 -0.2791,0.401 -1.2543,2.864 -2.1671,5.473 -2.8443,8.13 -15.4334,32.963 -19.2114,37.897 -1.9775,2.582 -4.569,6.359 -5.7589,8.392 -6.8033,11.624 -24.664,31.889 -36.7367,41.683 -3.612,2.93 -7.5525,6.166 -8.7565,7.191 -3.7586,3.2 -6.0393,4.807 -6.8213,4.807 -0.4143,0 -2.8253,1.567 -5.3577,3.482 -8.6245,6.523 -27.6749,15.162 -47.2924,21.447 -15.2036,4.872 -18.3125,5.692 -25.9048,6.84 -4.0134,0.607 -9.2673,1.576 -11.6753,2.155 -14.9461,3.588 -60.6295,4.174 -86.1059,1.104 -30.9891,-3.735 -61.7969,-10.886 -80.4101,-18.664 -3.2887,-1.375 -6.4442,-2.499 -7.0119,-2.499 -0.5679,0 -2.8026,-0.941 -4.9662,-2.091 -2.1635,-1.15 -6.3965,-3.16 -9.4065,-4.466 -3.0101,-1.307 -5.9297,-2.747 -6.488,-3.2 -1.5489,-1.257 -18.0735,-6.956 -23.4302,-8.08 -2.6087,-0.547 -6.7601,-1.675 -9.2253,-2.506 -10.56,-3.56 -51.3598,-3.635 -66.2998,-0.122 -6.3887,1.502 -8.16,1.976 -19.0857,5.105 -2.8717,0.822 -5.5879,1.495 -6.0359,1.495 -0.8944,0 -11.9543,4.147 -18.2962,6.86 -6.8401,2.925 -11.9329,4.912 -14.5942,5.692 -1.4047,0.412 -3.3749,1.323 -4.3783,2.026 -1.0033,0.702 -3.3019,1.932 -5.1079,2.733 -1.8061,0.801 -7.8809,4.016 -13.4997,7.146 -5.6188,3.129 -11.5294,6.351 -13.1348,7.16 -4.4231,2.229 -13.6768,7.799 -15.3239,9.225 -0.8027,0.695 -4.4148,3.059 -8.0268,5.254 -19.3863,11.78 -35.2285,14.191 -53.4973,8.142 -10.4625,-3.464 -22.1267,-11.96 -28.7884,-20.969 -1.5109,-2.044 -3.7182,-4.914 -4.9051,-6.378 -2.147,-2.65 -6.6039,-10.741 -8.9839,-16.31 -0.6859,-1.605 -1.705,-3.74 -2.2645,-4.743 -1.4618,-2.622 -6.8213,-19.223 -8.0098,-24.81 -0.555,-2.609 -1.3705,-6.221 -1.8123,-8.027 -2.6764,-10.941 -3.8398,-40.787 -2.2897,-58.742 z"
       id="path3808-48-93-9-4"
       inkscape:connector-curvature="0" />
    <path
       style="display:inline;fill:#00b259;fill-opacity:1;stroke:none"
       d="m 795.01994,-312.08762 c -2.1427,-0.02 -4.3467,0.122 -6.5937,0.406 l 0,247.280998 c 5.1673,-5.345 10.3742,-11.3 14.8124,-16.875 l 0,-229.905998 c -2.6502,-0.57 -5.3819,-0.875 -8.2187,-0.906 z m -21.375,4.219 c -4.7434,1.788 -9.6736,4.133 -14.7813,7.062 l 0,260.968998 c 0.5683,-0.342 1.0401,-0.594 1.1876,-0.594 0.782,0 3.0539,-1.613 6.8124,-4.812 0.9326,-0.794 3.9895,-3.286 6.7813,-5.563 l 0,-257.061998 z m -444.2187,2.625 c -4.8897,0.08 -9.6266,0.271 -14.2188,0.593 l 0,278.124998 c 1.0119,-0.534 2.2667,-1.055 3.25,-1.343 2.2351,-0.656 6.2712,-2.208 11.5312,-4.407 l 0,-272.967998 c -0.186,0 -0.3769,0 -0.5624,0 z m 15.3437,0.09 0,266.936998 c 3.3877,-1.261 6.1402,-2.219 6.5625,-2.219 0.448,0 3.1908,-0.677 6.0625,-1.5 0.8818,-0.252 1.3865,-0.405 2.1563,-0.625 l 0,-261.874998 c -5.076,-0.336 -9.9938,-0.577 -14.7813,-0.718 z m 473.25,0.656 0,202.125 c 0.029,-0.04 0.064,-0.09 0.094,-0.125 2.6839,-3.505 9.7629,-17.001 14.6876,-27.469 l 0,-159.25 c -3.6452,-4.698 -7.7478,-9.292 -11.375,-12.531 -1.1078,-0.989 -2.2465,-1.903 -3.4063,-2.75 z m -443.6875,1.344 0,256.624998 c 0.698,-0.167 1.3036,-0.307 2.125,-0.5 3.2051,-0.754 7.656,-1.326 12.6875,-1.75 l 0,-251.843998 c -5.7965,-1.131 -11.0572,-2.038 -14.8125,-2.531 z m -73.9375,0.03 c -5.1016,0.705 -10.03,1.569 -14.7813,2.625 l 0,289.936998 c 2.645,-1.426 6.0431,-3.289 9.8438,-5.406 1.6959,-0.945 3.2885,-1.796 4.9375,-2.688 l 0,-284.467998 z m 103.5313,5.625 0,247.967998 c 4.961,-0.111 9.977,-0.101 14.7812,0.03 l 0,-244.280998 c -0.7628,-0.212 -1.3886,-0.397 -2.0938,-0.594 -3.4934,-0.973 -7.9611,-2.05 -12.6874,-3.125 z m -133.0938,1.031 c -5.1128,1.667 -10.0277,3.595 -14.7812,5.75 l 0,298.0939978 c 0.9737,-0.554 1.946,-1.117 2.9374,-1.719 3.6122,-2.195 7.2286,-4.555 8.0313,-5.25000003 0.5451,-0.472 2.0518,-1.45399997 3.8125,-2.56299997 l 0,-294.3119978 z m 473.25,5.375 c -2.3853,1.737 -5.4066,3.653 -6.7812,4.344 -1.2136,0.61 -4.5988,2.711 -8,4.937 l 0,258.218998 c 5.4386,-2.284 10.4537,-4.602 14.7812,-6.875 l 0,-260.624998 z m -310.5938,1.469 0,241.030998 c 3.9674,0.429 7.2128,0.99 9.2813,1.687 1.474,0.497 3.5418,1.073 5.5313,1.594 l 0,-239.624998 c -0.1804,-0.06 -0.5321,-0.168 -0.6876,-0.219 -1.806,-0.582 -5.4225,-1.75 -8.0312,-2.593 -1.631,-0.528 -3.8792,-1.219 -6.0938,-1.875 z m -192.2187,6.718 c -1.6308,0.991 -3.2475,2.004 -4.8437,3.063 -1.5721,1.043 -4.1602,2.634 -5.75,3.531 -1.0572,0.597 -2.5145,1.638 -4.2188,3 l 0,290.280998 c 4.8945,-0.228 9.7917,-1.18 14.8125,-2.843 l 0,-297.031998 z m 221.8125,3.032 0,238.780998 c 5.7527,1.928 11.4639,4.067 12.3438,4.781 0.2881,0.234 1.2035,0.738 2.4374,1.344 l 0,-239.093998 c -1.9915,-0.711 -4.1299,-1.46 -5.8124,-2.062 -2.4082,-0.862 -6.0166,-2.368 -8.0313,-3.344 -0.2591,-0.126 -0.6264,-0.268 -0.9375,-0.406 z m 251.4062,7.312 c -4.8216,2.788 -9.7305,5.405 -14.7812,7.875 l 0,251.624998 c 2.2386,-0.695 4.5798,-1.442 7.6875,-2.437 2.3801,-0.763 4.748,-1.583 7.0937,-2.407 l 0,-254.655998 z m -221.8437,4.531 0,240.062998 c 1.6782,0.817 3.1751,1.406 3.625,1.406 0.5678,0 3.7424,1.126 7.0313,2.5 1.3207,0.552 2.7169,1.08 4.1562,1.625 l 0,-239.436998 c -1.4534,-0.54 -3.2192,-1.261 -4.75,-2.032 -2.3111,-1.163 -6.7392,-2.975 -10.0625,-4.125 z m -280.9687,8.125 c -5.301,5.165 -10.6439,10.677 -14.7813,15.313 l 0,254.593998 c 2.872,1.575 5.7749,2.879 8.5937,3.812 2.0904,0.692 4.1518,1.25 6.1876,1.719 l 0,-275.437998 z m 473.25,1.875 c -4.7975,1.978 -9.7093,3.865 -14.7813,5.625 l 0,245.8439978 c 2.5174,-0.584 7.4804,-1.51 11.3437,-2.094 1.2522,-0.189 2.3549,-0.371 3.4376,-0.562 l 0,-248.8129978 z m 162.6562,0.125 0,85.469 c 0.3832,-1.71 0.7287,-3.402 0.9688,-4.812 0.6147,-3.612 1.4655,-7.721 1.875,-9.125 2.3258,-7.978 2.7217,-48.498 0.5312,-54.407 -0.6024,-1.624 -1.5267,-6.05 -2.0312,-9.843 -0.4303,-3.235 -0.9755,-6.199 -1.3438,-7.282 z m -325.3125,1.594 0,238.780998 c 4.6486,1.354 9.594,2.643 14.7813,3.875 l 0,-237.811998 c -0.9726,-0.295 -1.958,-0.587 -2.9688,-0.906 -4.8711,-1.54 -9.5201,-3.1 -11.8125,-3.938 z m 133.0937,8.531 c -3.152,0.829 -7.2252,1.735 -14.8124,3.344 l 0,240.7499978 c 5.3277,-0.186 10.3402,-0.472 14.8124,-0.844 l 0,-243.2499978 z m -103.5312,0.25 0,237.062998 c 4.8346,0.9509998 9.7633,1.8499998 14.7812,2.6559998 l 0,-236.4689978 c -5.8645,-1.243 -10.8171,-2.319 -14.7812,-3.25 z m 73.9375,5.407 c -4.6715,0.476 -9.6697,0.795 -14.7813,0.968 l 0,237.5629978 c 4.8806,0.135 9.856,0.201 14.7813,0.187 l 0,-238.7179978 z m -44.375,0.187 0,236.2189978 c 0.7707,0.1 1.5413,0.219 2.3125,0.312 3.7673,0.454 8.0137,0.798 12.5,1.094 l 0,-236.7809978 c -5.1646,-0.124 -10.202,-0.399 -14.8125,-0.844 z m -399.2813,17.438 c -0.3991,0.629 -0.7844,1.253 -1.0937,1.812 -1.0517,1.901 -3.4265,6.138 -5.2813,9.406 -3.3099,5.834 -6.0349,11.147 -8.4062,16.313 l 0,176.249998 c 1.7029,3.1 3.3811,5.845 4.4688,7.187 1.1868,1.465 3.3953,4.3319998 4.9062,6.3749998 1.5603,2.11 3.3768,4.192 5.4062,6.18799997 l 0,-223.53099777 z m -29.5937,73.75 c -1.8319,8.884 -3.6388,19.293 -4.0937,24.562 -1.55,17.955 -0.3952,47.809998 2.2812,58.749998 0.4418,1.806 1.2576,5.423 1.8125,8.031 l 0,-91.342998 z"
       id="path3808-9-2-5-8"
       inkscape:connector-curvature="0" />
    <path
       style="display:inline;fill:#00b259;fill-opacity:1;stroke:none"
       d="m 795.01994,87.912378 c -2.1427,-0.02 -4.3467,0.122 -6.5937,0.406 l 0,247.281002 c 5.1673,-5.345 10.3742,-11.3 14.8124,-16.875 l 0,-229.906002 c -2.6502,-0.57 -5.3819,-0.875 -8.2187,-0.906 z m -21.375,4.219 c -4.7434,1.788 -9.6736,4.133 -14.7813,7.062 l 0,260.969002 c 0.5683,-0.342 1.0401,-0.594 1.1876,-0.594 0.782,0 3.0539,-1.613 6.8124,-4.812 0.9326,-0.794 3.9895,-3.286 6.7813,-5.563 l 0,-257.062002 z m -444.2187,2.625 c -4.8897,0.08 -9.6266,0.271 -14.2188,0.593 l 0,278.125002 c 1.0119,-0.534 2.2667,-1.055 3.25,-1.343 2.2351,-0.656 6.2712,-2.208 11.5312,-4.407 l 0,-272.968002 c -0.186,0 -0.3769,0 -0.5624,0 z m 15.3437,0.09 0,266.937002 c 3.3877,-1.261 6.1402,-2.219 6.5625,-2.219 0.448,0 3.1908,-0.677 6.0625,-1.5 0.8818,-0.252 1.3865,-0.405 2.1563,-0.625 l 0,-261.875002 c -5.076,-0.336 -9.9938,-0.577 -14.7813,-0.718 z m 473.25,0.656 0,202.125002 c 0.029,-0.04 0.064,-0.09 0.094,-0.125 2.6839,-3.505 9.7629,-17.001 14.6876,-27.469 l 0,-159.25 c -3.6452,-4.698 -7.7478,-9.292 -11.375,-12.531002 -1.1078,-0.989 -2.2465,-1.903 -3.4063,-2.75 z m -443.6875,1.344 0,256.625002 c 0.698,-0.167 1.3036,-0.307 2.125,-0.5 3.2051,-0.754 7.656,-1.326 12.6875,-1.75 l 0,-251.844002 c -5.7965,-1.131 -11.0572,-2.038 -14.8125,-2.531 z m -73.9375,0.03 c -5.1016,0.705 -10.03,1.569 -14.7813,2.625 l 0,289.937002 c 2.645,-1.426 6.0431,-3.289 9.8438,-5.406 1.6959,-0.945 3.2885,-1.796 4.9375,-2.688 l 0,-284.468002 z m 103.5313,5.625002 0,247.968 c 4.961,-0.111 9.977,-0.101 14.7812,0.03 l 0,-244.281 c -0.7628,-0.212 -1.3886,-0.397 -2.0938,-0.594 -3.4934,-0.973 -7.9611,-2.05 -12.6874,-3.125 z m -133.0938,1.031 c -5.1128,1.667 -10.0277,3.595 -14.7812,5.75 l 0,298.094 c 0.9737,-0.554 1.946,-1.117 2.9374,-1.719 3.6122,-2.195 7.2286,-4.555 8.0313,-5.25 0.5451,-0.472 2.0518,-1.454 3.8125,-2.563 l 0,-294.312 z m 473.25,5.375 c -2.3853,1.737 -5.4066,3.653 -6.7812,4.344 -1.2136,0.61 -4.5988,2.711 -8,4.937 l 0,258.219 c 5.4386,-2.284 10.4537,-4.602 14.7812,-6.875 l 0,-260.625 z m -310.5938,1.469 0,241.031 c 3.9674,0.429 7.2128,0.99 9.2813,1.687 1.474,0.497 3.5418,1.073 5.5313,1.594 l 0,-239.625 c -0.1804,-0.06 -0.5321,-0.168 -0.6876,-0.219 -1.806,-0.582 -5.4225,-1.75 -8.0312,-2.593 -1.631,-0.528 -3.8792,-1.219 -6.0938,-1.875 z m -192.2187,6.718 c -1.6308,0.991 -3.2475,2.004 -4.8437,3.063 -1.5721,1.042 -4.1602,2.634 -5.75,3.531 -1.0572,0.597 -2.5145,1.638 -4.2188,3 l 0,290.281 c 4.8945,-0.228 9.7917,-1.18 14.8125,-2.843 l 0,-297.032 z m 221.8125,3.032 0,238.781 c 5.7527,1.928 11.4639,4.067 12.3438,4.781 0.2881,0.234 1.2035,0.738 2.4374,1.344 l 0,-239.094 c -1.9915,-0.711 -4.1299,-1.46 -5.8124,-2.062 -2.4082,-0.862 -6.0166,-2.368 -8.0313,-3.344 -0.2591,-0.126 -0.6264,-0.268 -0.9375,-0.406 z m 251.4062,7.312 c -4.8216,2.788 -9.7305,5.405 -14.7812,7.875 l 0,251.625 c 2.2386,-0.695 4.5798,-1.442 7.6875,-2.437 2.3801,-0.763 4.748,-1.583 7.0937,-2.407 l 0,-254.656 z m -221.8437,4.531 0,240.063 c 1.6782,0.817 3.1751,1.406 3.625,1.406 0.5678,0 3.7424,1.126 7.0313,2.5 1.3207,0.552 2.7169,1.08 4.1562,1.625 l 0,-239.437 c -1.4534,-0.54 -3.2192,-1.261 -4.75,-2.032 -2.3111,-1.163 -6.7392,-2.975 -10.0625,-4.125 z m -280.9687,8.125 c -5.301,5.165 -10.6439,10.677 -14.7813,15.313 l 0,254.594 c 2.872,1.575 5.7749,2.879 8.5937,3.812 2.0904,0.692 4.1518,1.25 6.1876,1.719 l 0,-275.438 z m 473.25,1.875 c -4.7975,1.977 -9.7093,3.865 -14.7813,5.625 l 0,245.844 c 2.5174,-0.584 7.4804,-1.51 11.3437,-2.094 1.2522,-0.189 2.3549,-0.371 3.4376,-0.562 l 0,-248.813 z m 162.6562,0.125 0,85.469 c 0.3832,-1.71 0.7287,-3.402 0.9688,-4.812 0.6147,-3.612 1.4655,-7.721 1.875,-9.125 2.3258,-7.978 2.7217,-48.499 0.5312,-54.407 -0.6024,-1.624 -1.5267,-6.05 -2.0312,-9.843 -0.4303,-3.235 -0.9755,-6.199 -1.3438,-7.282 z m -325.3125,1.594 0,238.781 c 4.6486,1.354 9.594,2.643 14.7813,3.875 l 0,-237.812 c -0.9726,-0.295 -1.958,-0.587 -2.9688,-0.906 -4.8711,-1.54 -9.5201,-3.1 -11.8125,-3.938 z m 133.0937,8.531 c -3.152,0.829 -7.2252,1.735 -14.8124,3.344 l 0,240.75 c 5.3277,-0.186 10.3402,-0.472 14.8124,-0.844 l 0,-243.25 z m -103.5312,0.25 0,237.063 c 4.8346,0.951 9.7633,1.85 14.7812,2.656 l 0,-236.469 c -5.8645,-1.243 -10.8171,-2.319 -14.7812,-3.25 z m 73.9375,5.407 c -4.6715,0.476 -9.6697,0.795 -14.7813,0.968 l 0,237.563 c 4.8806,0.135 9.856,0.201 14.7813,0.187 l 0,-238.718 z m -44.375,0.187 0,236.219 c 0.7707,0.1 1.5413,0.219 2.3125,0.312 3.7673,0.454 8.0137,0.798 12.5,1.094 l 0,-236.781 c -5.1646,-0.124 -10.202,-0.399 -14.8125,-0.844 z m -399.2813,17.438 c -0.3991,0.629 -0.7844,1.253 -1.0937,1.812 -1.0517,1.901 -3.4265,6.138 -5.2813,9.406 -3.3099,5.834 -6.0349,11.147 -8.4062,16.313 l 0,176.25 c 1.7029,3.1 3.3811,5.845 4.4688,7.187 1.1868,1.465 3.3953,4.332 4.9062,6.375 1.5603,2.11 3.3768,4.192 5.4062,6.188 l 0,-223.531 z m -29.5937,73.75 c -1.8319,8.884 -3.6388,19.293 -4.0937,24.562 -1.55,17.955 -0.3952,47.81 2.2812,58.75 0.4418,1.806 1.2576,5.423 1.8125,8.031 l 0,-91.343 z"
       id="path3808-9-2-0-0-1"
       inkscape:connector-curvature="0" />
    <path
       style="display:inline;fill:#00b259;fill-opacity:1;stroke:none"
       d="m 795.01994,487.91237 c -2.1427,-0.02 -4.3467,0.122 -6.5937,0.406 l 0,247.281 c 5.1673,-5.345 10.3742,-11.3 14.8124,-16.875 l 0,-229.906 c -2.6502,-0.57 -5.3819,-0.875 -8.2187,-0.906 z m -21.375,4.219 c -4.7434,1.788 -9.6736,4.133 -14.7813,7.062 l 0,260.969 c 0.5683,-0.342 1.0401,-0.594 1.1876,-0.594 0.782,0 3.0539,-1.613 6.8124,-4.812 0.9326,-0.794 3.9895,-3.286 6.7813,-5.563 l 0,-257.062 z m -444.2187,2.625 c -4.8897,0.08 -9.6266,0.271 -14.2188,0.593 l 0,278.125 c 1.0119,-0.534 2.2667,-1.055 3.25,-1.343 2.2351,-0.656 6.2712,-2.208 11.5312,-4.407 l 0,-272.968 c -0.186,0 -0.3769,0 -0.5624,0 z m 15.3437,0.09 0,266.937 c 3.3877,-1.261 6.1402,-2.219 6.5625,-2.219 0.448,0 3.1908,-0.677 6.0625,-1.5 0.8818,-0.252 1.3865,-0.405 2.1563,-0.625 l 0,-261.875 c -5.076,-0.336 -9.9938,-0.577 -14.7813,-0.718 z m 473.25,0.656 0,202.125 c 0.029,-0.04 0.064,-0.09 0.094,-0.125 2.6839,-3.505 9.7629,-17.001 14.6876,-27.469 l 0,-159.25 c -3.6452,-4.698 -7.7478,-9.292 -11.375,-12.531 -1.1078,-0.989 -2.2465,-1.903 -3.4063,-2.75 z m -443.6875,1.344 0,256.625 c 0.698,-0.167 1.3036,-0.307 2.125,-0.5 3.2051,-0.754 7.656,-1.326 12.6875,-1.75 l 0,-251.844 c -5.7965,-1.131 -11.0572,-2.038 -14.8125,-2.531 z m -73.9375,0.03 c -5.1016,0.705 -10.03,1.569 -14.7813,2.625 l 0,289.937 c 2.645,-1.426 6.0431,-3.289 9.8438,-5.406 1.6959,-0.945 3.2885,-1.796 4.9375,-2.688 l 0,-284.468 z m 103.5313,5.625 0,247.968 c 4.961,-0.111 9.977,-0.101 14.7812,0.03 l 0,-244.281 c -0.7628,-0.212 -1.3886,-0.397 -2.0938,-0.594 -3.4934,-0.973 -7.9611,-2.05 -12.6874,-3.125 z m -133.0938,1.031 c -5.1128,1.667 -10.0277,3.595 -14.7812,5.75 l 0,298.094 c 0.9737,-0.554 1.946,-1.117 2.9374,-1.719 3.6122,-2.195 7.2286,-4.555 8.0313,-5.25 0.5451,-0.472 2.0518,-1.454 3.8125,-2.563 l 0,-294.312 z m 473.25,5.375 c -2.3853,1.737 -5.4066,3.653 -6.7812,4.344 -1.2136,0.61 -4.5988,2.711 -8,4.937 l 0,258.219 c 5.4386,-2.284 10.4537,-4.602 14.7812,-6.875 l 0,-260.625 z m -310.5938,1.469 0,241.031 c 3.9674,0.429 7.2128,0.99 9.2813,1.687 1.474,0.497 3.5418,1.073 5.5313,1.594 l 0,-239.625 c -0.1804,-0.06 -0.5321,-0.168 -0.6876,-0.219 -1.806,-0.582 -5.4225,-1.75 -8.0312,-2.593 -1.631,-0.528 -3.8792,-1.219 -6.0938,-1.875 z m -192.2187,6.718 c -1.6308,0.991 -3.2475,2.004 -4.8437,3.063 -1.5721,1.042 -4.1602,2.634 -5.75,3.531 -1.0572,0.597 -2.5145,1.638 -4.2188,3 l 0,290.281 c 4.8945,-0.228 9.7917,-1.18 14.8125,-2.843 l 0,-297.032 z m 221.8125,3.032 0,238.781 c 5.7527,1.928 11.4639,4.067 12.3438,4.781 0.2881,0.234 1.2035,0.738 2.4374,1.344 l 0,-239.094 c -1.9915,-0.711 -4.1299,-1.46 -5.8124,-2.062 -2.4082,-0.862 -6.0166,-2.368 -8.0313,-3.344 -0.2591,-0.126 -0.6264,-0.268 -0.9375,-0.406 z m 251.4062,7.312 c -4.8216,2.788 -9.7305,5.405 -14.7812,7.875 l 0,251.625 c 2.2386,-0.695 4.5798,-1.442 7.6875,-2.437 2.3801,-0.763 4.748,-1.583 7.0937,-2.407 l 0,-254.656 z m -221.8437,4.531 0,240.063 c 1.6782,0.817 3.1751,1.406 3.625,1.406 0.5678,0 3.7424,1.126 7.0313,2.5 1.3207,0.552 2.7169,1.08 4.1562,1.625 l 0,-239.437 c -1.4534,-0.54 -3.2192,-1.261 -4.75,-2.032 -2.3111,-1.163 -6.7392,-2.975 -10.0625,-4.125 z m -280.9687,8.125 c -5.301,5.165 -10.6439,10.677 -14.7813,15.313 l 0,254.594 c 2.872,1.575 5.7749,2.879 8.5937,3.812 2.0904,0.692 4.1518,1.25 6.1876,1.719 l 0,-275.438 z m 473.25,1.875 c -4.7975,1.977 -9.7093,3.865 -14.7813,5.625 l 0,245.844 c 2.5174,-0.584 7.4804,-1.51 11.3437,-2.094 1.2522,-0.189 2.3549,-0.371 3.4376,-0.562 l 0,-248.813 z m 162.6562,0.125 0,85.469 c 0.3832,-1.71 0.7287,-3.402 0.9688,-4.812 0.6147,-3.612 1.4655,-7.721 1.875,-9.125 2.3258,-7.978 2.7217,-48.499 0.5312,-54.407 -0.6024,-1.624 -1.5267,-6.05 -2.0312,-9.843 -0.4303,-3.235 -0.9755,-6.199 -1.3438,-7.282 z m -325.3125,1.594 0,238.781 c 4.6486,1.354 9.594,2.643 14.7813,3.875 l 0,-237.812 c -0.9726,-0.295 -1.958,-0.587 -2.9688,-0.906 -4.8711,-1.54 -9.5201,-3.1 -11.8125,-3.938 z m 133.0937,8.531 c -3.152,0.829 -7.2252,1.735 -14.8124,3.344 l 0,240.75 c 5.3277,-0.186 10.3402,-0.472 14.8124,-0.844 l 0,-243.25 z m -103.5312,0.25 0,237.063 c 4.8346,0.951 9.7633,1.85 14.7812,2.656 l 0,-236.469 c -5.8645,-1.243 -10.8171,-2.319 -14.7812,-3.25 z m 73.9375,5.407 c -4.6715,0.476 -9.6697,0.795 -14.7813,0.968 l 0,237.563 c 4.8806,0.135 9.856,0.201 14.7813,0.187 l 0,-238.718 z m -44.375,0.187 0,236.219 c 0.7707,0.1 1.5413,0.219 2.3125,0.312 3.7673,0.454 8.0137,0.798 12.5,1.094 l 0,-236.781 c -5.1646,-0.124 -10.202,-0.399 -14.8125,-0.844 z m -399.2813,17.438 c -0.3991,0.629 -0.7844,1.253 -1.0937,1.812 -1.0517,1.901 -3.4265,6.138 -5.2813,9.406 -3.3099,5.834 -6.0349,11.147 -8.4062,16.313 l 0,176.25 c 1.7029,3.1 3.3811,5.845 4.4688,7.187 1.1868,1.465 3.3953,4.332 4.9062,6.375 1.5603,2.11 3.3768,4.192 5.4062,6.188 l 0,-223.531 z m -29.5937,73.75 c -1.8319,8.884 -3.6388,19.293 -4.0937,24.562 -1.55,17.955 -0.3952,47.81 2.2812,58.75 0.4418,1.806 1.2576,5.423 1.8125,8.031 l 0,-91.343 z"
       id="path3808-9-2-1-4-0"
       inkscape:connector-curvature="0" />
  </g>
  <g
     inkscape:groupmode="layer"
     id="layer3"
     inkscape:label="stri[eys"
     style="display:inline"
     transform="translate(-0.06562161,547.55718)" />
</svg>
