<?xml version="1.0" encoding="UTF-8" standalone="no"?>
<!-- Created with Inkscape (http://www.inkscape.org/) -->

<svg
   xmlns:dc="http://purl.org/dc/elements/1.1/"
   xmlns:cc="http://creativecommons.org/ns#"
   xmlns:rdf="http://www.w3.org/1999/02/22-rdf-syntax-ns#"
   xmlns:svg="http://www.w3.org/2000/svg"
   xmlns="http://www.w3.org/2000/svg"
   xmlns:sodipodi="http://sodipodi.sourceforge.net/DTD/sodipodi-0.dtd"
   xmlns:inkscape="http://www.inkscape.org/namespaces/inkscape"
   width="1000"
   height="1600"
   id="svg2"
   version="1.1"
   inkscape:version="0.91 r13725"
   sodipodi:docname="PDS2.svg">
  <defs
     id="defs4" />
  <sodipodi:namedview
     id="base"
     pagecolor="#ffffff"
     bordercolor="#666666"
     borderopacity="1.0"
     inkscape:pageopacity="0.0"
     inkscape:pageshadow="2"
     inkscape:zoom="0.16000001"
     inkscape:cx="1117.4205"
     inkscape:cy="558.80867"
     inkscape:document-units="px"
     inkscape:current-layer="layer1"
     showgrid="false"
     borderlayer="false"
     showborder="false"
     inkscape:showpageshadow="false"
     showguides="true"
     inkscape:guide-bbox="true"
     inkscape:snap-global="true"
     inkscape:snap-object-midpoints="true"
     inkscape:snap-center="true"
     inkscape:object-paths="false"
     inkscape:object-nodes="false"
     inkscape:window-width="831"
     inkscape:window-height="587"
     inkscape:window-x="768"
     inkscape:window-y="63"
     inkscape:window-maximized="0"
     inkscape:snap-nodes="true"
     fit-margin-top="0"
     fit-margin-left="0"
     fit-margin-right="0"
     fit-margin-bottom="0">
    <sodipodi:guide
       orientation="1,0"
       position="-1.5260583e-005,8.1561463e-006"
       id="guide3777" />
    <sodipodi:guide
       orientation="1,0"
       position="999.99999,8.1561463e-006"
       id="guide3779" />
    <sodipodi:guide
       orientation="1,0"
       position="499.99999,-500.00002"
       id="guide3781" />
    <sodipodi:guide
       orientation="0,1"
       position="-460.62957,799.99998"
       id="guide3785" />
    <sodipodi:guide
       orientation="0,1"
       position="-500.00001,1200.0001"
       id="guide3787" />
    <sodipodi:guide
       orientation="0,1"
       position="-355.57401,399.99998"
       id="guide3789" />
    <sodipodi:guide
       orientation="0,1"
       position="218.19294,1600.0001"
       id="guide3791" />
    <sodipodi:guide
       orientation="0,1"
       position="-242.43662,8.1561463e-006"
       id="guide3793" />
    <inkscape:grid
       type="xygrid"
       id="grid3871"
       empspacing="5"
       visible="true"
       enabled="true"
       snapvisiblegridlinesonly="true"
       originx="-1.5260583e-005"
       originy="8.1561463e-006" />
  </sodipodi:namedview>
  <metadata
     id="metadata7">
    <rdf:RDF>
      <cc:Work
         rdf:about="">
        <dc:format>image/svg+xml</dc:format>
        <dc:type
           rdf:resource="http://purl.org/dc/dcmitype/StillImage" />
        <dc:title></dc:title>
      </cc:Work>
    </rdf:RDF>
  </metadata>
  <g
     inkscape:groupmode="layer"
     id="layer2"
     inkscape:label="backCards"
     transform="translate(-1.5258789e-5,547.63744)" />
  <g
     inkscape:label="Layer 1"
     inkscape:groupmode="layer"
     id="layer1"
     transform="translate(-1.5258789e-5,547.63744)">
    <rect
       style="fill:#fbfbfb;fill-opacity:1;stroke:#999999;stroke-width:6.37388039;stroke-linecap:butt;stroke-linejoin:miter;stroke-miterlimit:4;stroke-dasharray:none;stroke-opacity:1"
       id="rect3007-7-8"
       width="993.6261"
       height="1593.6261"
       x="3.1869555"
       y="-544.4505"
       rx="60.373772"
       ry="61.035278" />
    <rect
       style="fill:none;stroke:#492f92;stroke-width:22.0216732;stroke-miterlimit:4;stroke-dasharray:none;stroke-opacity:1"
       id="rect4647-5-5-3-5-6"
       width="381.77835"
       height="381.77835"
       x="35.195942"
       y="148.188"
       transform="matrix(0.8847019,-0.46615722,0.8847019,0.46615722,0,0)" />
    <rect
       style="fill:none;stroke:#492f92;stroke-width:22.0216732;stroke-miterlimit:4;stroke-dasharray:none;stroke-opacity:1"
       id="rect4647-5-5-2-3-4"
       width="381.77835"
       height="381.77835"
       x="-393.84311"
       y="577.229"
       transform="matrix(0.8847019,-0.46615722,0.8847019,0.46615722,0,0)" />
    <path
       style="display:inline;fill:#492f92;fill-opacity:1;stroke:none"
       d="m 500.00051,-125.29672 -7.4062,3.906 0,348.125 7.4062,3.907 7.4063,-3.907 0,-348.125 -7.4063,-3.906 z m -22.1874,11.688 -14.7813,7.781 0,317 14.7813,7.781 0,-332.562 z m 44.375,0 0,332.562 14.8124,-7.812 0,-316.938 -14.8124,-7.812 z m -73.9688,15.592999 -14.7812,7.782 0,285.812001 14.7812,7.781 0,-301.375001 z m 103.5625,0 0,301.375001 14.7813,-7.781 0,-285.812001 -14.7813,-7.782 z m -133.125,15.563 -14.7813,7.812 0,254.625001 14.7813,7.813 0,-270.250001 z m 162.6875,0.03 0,270.188001 14.7812,-7.782 0,-254.625001 -14.7812,-7.781 z m -192.25,15.563 -14.8125,7.812 0,223.438001 14.8125,7.812 0,-239.062001 z m 221.8438,0.03 0,239.000001 14.7812,-7.782 0,-223.437001 -14.7812,-7.781 z m -251.4376,15.562 -14.7812,7.781 0,192.313001 14.7812,7.781 0,-207.875001 z m 281,0 0,207.875001 14.7813,-7.781 0,-192.313001 -14.7813,-7.781 z m -310.5624,15.563 -14.8126,7.812 0,161.125001 14.8126,7.813 0,-176.750001 z m 340.1562,0.03 0,176.687001 14.7812,-7.781 0,-161.125001 -14.7812,-7.781 z m -369.75,15.562 -14.7812,7.781 0,130.000001 14.7812,7.782 0,-145.563001 z m 399.3125,0.03 0,145.500001 14.78133,-7.781 0,-129.938001 -14.78133,-7.781 z m -428.875,15.5620005 -14.7813,7.782 0,98.8120005 14.7813,7.781 0,-114.3750005 z m 458.43753,0 0,114.3750005 14.8125,-7.812 0,-98.7500005 -14.8125,-7.813 z m -488.03123,15.5939995 -14.7813,7.781 0,67.625 14.7813,7.782 0,-83.188 z m 517.62503,0 0,83.188 14.7812,-7.782 0,-67.625 -14.7812,-7.781 z m -547.18763,15.563 -14.7812,7.781 0,36.5 14.7812,7.781 0,-52.062 z m 576.75003,0 0,52.062 14.7813,-7.812 0,-36.438 -14.7813,-7.812 z m -606.34373,15.593 -14.7813,7.782 0,5.312 14.7813,7.781 0,-20.875 z m 635.93753,0 0,20.875 14.7812,-7.812 0,-5.25 -14.7812,-7.813 z"
       id="rect4647-8-8-8-5"
       inkscape:connector-curvature="0" />
    <path
       style="display:inline;fill:#492f92;fill-opacity:1;stroke:none"
       d="m 500.00051,274.70328 -7.4062,3.906 0,348.12499 7.4062,3.907 7.4063,-3.907 0,-348.12499 -7.4063,-3.906 z m -22.1874,11.688 -14.7813,7.781 0,316.99999 14.7813,7.781 0,-332.56199 z m 44.375,0 0,332.56199 14.8124,-7.812 0,-316.93799 -14.8124,-7.812 z m -73.9688,15.593 -14.7812,7.782 0,285.81199 14.7812,7.781 0,-301.37499 z m 103.5625,0 0,301.37499 14.7813,-7.781 0,-285.81199 -14.7813,-7.782 z m -133.125,15.563 -14.7813,7.812 0,254.62499 14.7813,7.813 0,-270.24999 z m 162.6875,0.03 0,270.18799 14.7812,-7.782 0,-254.62499 -14.7812,-7.781 z m -192.25,15.563 -14.8125,7.812 0,223.43799 14.8125,7.812 0,-239.06199 z m 221.8438,0.03 0,238.99999 14.7812,-7.782 0,-223.43699 -14.7812,-7.781 z m -251.4376,15.562 -14.7812,7.781 0,192.31299 14.7812,7.781 0,-207.87499 z m 281,0 0,207.87499 14.7813,-7.781 0,-192.31299 -14.7813,-7.781 z m -310.5624,15.563 -14.8126,7.812 0,161.12499 14.8126,7.813 0,-176.74999 z m 340.1562,0.03 0,176.68699 14.7812,-7.781 0,-161.12499 -14.7812,-7.781 z m -369.75,15.562 -14.7812,7.781 0,129.99999 14.7812,7.782 0,-145.56299 z m 399.3125,0.03 0,145.49999 14.78133,-7.781 0,-129.93799 -14.78133,-7.781 z m -428.875,15.562 -14.7813,7.782 0,98.81199 14.7813,7.781 0,-114.37499 z m 458.43753,0 0,114.37499 14.8125,-7.812 0,-98.74999 -14.8125,-7.813 z m -488.03123,15.594 -14.7813,7.781 0,67.62499 14.7813,7.782 0,-83.18799 z m 517.62503,0 0,83.18799 14.7812,-7.782 0,-67.62499 -14.7812,-7.781 z m -547.18763,15.563 -14.7812,7.781 0,36.49999 14.7812,7.781 0,-52.06199 z m 576.75003,0 0,52.06199 14.7813,-7.812 0,-36.43799 -14.7813,-7.812 z m -606.34373,15.593 -14.7813,7.782 0,5.31199 14.7813,7.781 0,-20.87499 z m 635.93753,0 0,20.87499 14.7812,-7.812 0,-5.24999 -14.7812,-7.813 z"
       id="rect4647-8-86-1-0"
       inkscape:connector-curvature="0" />
  </g>
  <g
     inkscape:groupmode="layer"
     id="layer3"
     inkscape:label="stri[eys"
     style="display:inline"
     transform="translate(-1.5258789e-5,547.63744)" />
</svg>
