<?xml version="1.0" encoding="UTF-8" standalone="no"?>
<!-- Created with Inkscape (http://www.inkscape.org/) -->

<svg
   xmlns:dc="http://purl.org/dc/elements/1.1/"
   xmlns:cc="http://creativecommons.org/ns#"
   xmlns:rdf="http://www.w3.org/1999/02/22-rdf-syntax-ns#"
   xmlns:svg="http://www.w3.org/2000/svg"
   xmlns="http://www.w3.org/2000/svg"
   xmlns:sodipodi="http://sodipodi.sourceforge.net/DTD/sodipodi-0.dtd"
   xmlns:inkscape="http://www.inkscape.org/namespaces/inkscape"
   width="1000"
   height="1600"
   id="svg2"
   version="1.1"
   inkscape:version="0.91 r13725"
   sodipodi:docname="POS1.svg">
  <defs
     id="defs4" />
  <sodipodi:namedview
     id="base"
     pagecolor="#ffffff"
     bordercolor="#666666"
     borderopacity="1.0"
     inkscape:pageopacity="0.0"
     inkscape:pageshadow="2"
     inkscape:zoom="0.22627418"
     inkscape:cx="742.59386"
     inkscape:cy="797.6485"
     inkscape:document-units="px"
     inkscape:current-layer="layer1"
     showgrid="false"
     borderlayer="false"
     showborder="false"
     inkscape:showpageshadow="false"
     showguides="true"
     inkscape:guide-bbox="true"
     inkscape:snap-global="true"
     inkscape:snap-object-midpoints="true"
     inkscape:snap-center="true"
     inkscape:object-paths="false"
     inkscape:object-nodes="false"
     inkscape:window-width="831"
     inkscape:window-height="587"
     inkscape:window-x="768"
     inkscape:window-y="63"
     inkscape:window-maximized="0"
     inkscape:snap-nodes="true"
     fit-margin-top="0"
     fit-margin-left="0"
     fit-margin-right="0"
     fit-margin-bottom="0">
    <sodipodi:guide
       orientation="1,0"
       position="-0.00029015721,0.002288783"
       id="guide3777" />
    <sodipodi:guide
       orientation="1,0"
       position="999.99972,0.002288783"
       id="guide3779" />
    <sodipodi:guide
       orientation="1,0"
       position="499.99972,-499.99773"
       id="guide3781" />
    <sodipodi:guide
       orientation="0,1"
       position="-460.62984,800.00227"
       id="guide3785" />
    <sodipodi:guide
       orientation="0,1"
       position="-500.00028,1200.0024"
       id="guide3787" />
    <sodipodi:guide
       orientation="0,1"
       position="-355.57428,400.00227"
       id="guide3789" />
    <sodipodi:guide
       orientation="0,1"
       position="218.19267,1600.0024"
       id="guide3791" />
    <sodipodi:guide
       orientation="0,1"
       position="-242.43689,0.002288783"
       id="guide3793" />
    <inkscape:grid
       type="xygrid"
       id="grid3871"
       empspacing="5"
       visible="true"
       enabled="true"
       snapvisiblegridlinesonly="true"
       originx="-0.00029015721"
       originy="0.002288783" />
  </sodipodi:namedview>
  <metadata
     id="metadata7">
    <rdf:RDF>
      <cc:Work
         rdf:about="">
        <dc:format>image/svg+xml</dc:format>
        <dc:type
           rdf:resource="http://purl.org/dc/dcmitype/StillImage" />
        <dc:title></dc:title>
      </cc:Work>
    </rdf:RDF>
  </metadata>
  <g
     inkscape:groupmode="layer"
     id="layer2"
     inkscape:label="backCards"
     transform="translate(-2.9015541e-4,547.6353)" />
  <g
     inkscape:label="Layer 1"
     inkscape:groupmode="layer"
     id="layer1"
     transform="translate(-2.9015541e-4,547.6353)">
    <rect
       style="fill:#fbfbfb;fill-opacity:1;stroke:#999999;stroke-width:6.37388039;stroke-linecap:butt;stroke-linejoin:miter;stroke-miterlimit:4;stroke-dasharray:none;stroke-opacity:1"
       id="rect3007-62-9"
       width="993.6261"
       height="1593.6261"
       x="3.1872303"
       y="-544.44836"
       rx="60.373772"
       ry="61.035278" />
    <path
       style="fill:none;stroke:#492f92;stroke-width:20;stroke-miterlimit:4;stroke-dasharray:none;stroke-opacity:1"
       d="m 317.57801,88.95788 c -90.242,0 -163.406,73.165 -163.406,163.407 0,90.242 73.164,163.406 163.406,163.406 l 364.844,0 c 90.242,0 163.406,-73.164 163.406,-163.406 0,-90.242 -73.164,-163.407 -163.406,-163.407 l -364.844,0 z"
       id="path4288-2-8-1-1-8-64"
       inkscape:connector-curvature="0" />
    <path
       style="display:inline;fill:#492f92;fill-opacity:1;stroke:none"
       d="m 317.59401,88.95888 c -0.826,0 -1.647,0.02 -2.469,0.03 l 0,326.75 c 0.822,0.01 1.644,0.03 2.469,0.03 l 12.343,0 0,-326.813 -12.343,0 z m 27.125,0 0,326.812 14.781,0 0,-326.812 -14.781,0 z m 29.562,0 0,326.812 14.813,0 0,-326.812 -14.813,0 z m 29.594,0 0,326.812 14.781,0 0,-326.812 -14.781,0 z m 29.562,0 0,326.812 14.782,0 0,-326.812 -14.782,0 z m 29.594,0 0,326.812 14.781,0 0,-326.812 -14.781,0 z m 29.563,0 0,326.812 14.812,0 0,-326.812 -14.812,0 z m 29.593,0 0,326.812 14.813,0 0,-326.812 -14.813,0 z m 29.594,0 0,326.812 14.781,0 0,-326.812 -14.781,0 z m 29.563,0 0,326.812 14.812,0 0,-326.812 -14.812,0 z m 29.593,0 0,326.812 14.782,0 0,-326.812 -14.782,0 z m 29.563,0 0,326.812 14.781,0 0,-326.812 -14.781,0 z m 29.594,0 0,326.812 12.343,0 c 0.815,0 1.626,-0.02 2.438,-0.03 l 0,-326.75 c -0.812,-0.01 -1.623,-0.03 -2.438,-0.03 l -12.343,0 z m -369.75,0.906 c -4.999,0.524 -9.928,1.254 -14.782,2.219 l 0,320.531 c 4.854,0.964 9.783,1.726 14.782,2.25 l 0,-325 z m 399.312,0 0,325 c 5,-0.524 9.926,-1.285 14.781,-2.25 l 0,-320.531 c -4.855,-0.965 -9.781,-1.695 -14.781,-2.219 z m -428.875,5.906 c -5.028,1.501 -9.969,3.228 -14.781,5.188 l 0,302.781 c 4.814,1.96 9.751,3.686 14.781,5.187 l 0,-313.156 z m 458.438,0 0,313.156 c 5.045,-1.505 9.985,-3.22 14.812,-5.187 l 0,-302.781 c -4.826,-1.966 -9.769,-3.683 -14.812,-5.188 z m -488.032,12.125 c -5.09,2.698 -10.027,5.642 -14.781,8.844 l 0,271.25 c 4.756,3.203 9.688,6.145 14.781,8.844 l 0,-288.938 z m 517.625,0 0,288.938 c 5.094,-2.699 10.026,-5.641 14.782,-8.844 l 0,-271.25 c -4.754,-3.202 -9.691,-6.146 -14.782,-8.844 z m 29.563,20.063 0,248.781 c 5.223,-4.452 10.157,-9.214 14.781,-14.281 l 0,-220.219 c -4.624,-5.068 -9.558,-9.829 -14.781,-14.281 z m -576.75,0.03 c -5.217,4.449 -10.162,9.217 -14.781,14.281 l 0,220.156 c 4.619,5.064 9.564,9.832 14.781,14.281 l 0,-248.718 z m -29.563,33.031 c -5.761,8.533 -10.723,17.642 -14.812,27.219 l 0,128.218 c 4.085,9.569 9.057,18.661 14.812,27.188 l 0,-182.625 z m 635.907,0.03 0,182.594 c 5.742,-8.508 10.701,-17.581 14.781,-27.125 l 0,-128.344 c -4.08,-9.545 -9.039,-18.617 -14.781,-27.125 z"
       id="path4288-2-7-8-1-5"
       inkscape:connector-curvature="0" />
  </g>
  <g
     inkscape:groupmode="layer"
     id="layer3"
     inkscape:label="stri[eys"
     style="display:inline"
     transform="translate(-2.9015541e-4,547.6353)" />
</svg>
