<?xml version="1.0" encoding="UTF-8" standalone="no"?>
<!-- Created with Inkscape (http://www.inkscape.org/) -->

<svg
   xmlns:dc="http://purl.org/dc/elements/1.1/"
   xmlns:cc="http://creativecommons.org/ns#"
   xmlns:rdf="http://www.w3.org/1999/02/22-rdf-syntax-ns#"
   xmlns:svg="http://www.w3.org/2000/svg"
   xmlns="http://www.w3.org/2000/svg"
   xmlns:sodipodi="http://sodipodi.sourceforge.net/DTD/sodipodi-0.dtd"
   xmlns:inkscape="http://www.inkscape.org/namespaces/inkscape"
   width="1000"
   height="1600"
   id="svg2"
   version="1.1"
   inkscape:version="0.91 r13725"
   sodipodi:docname="PWS1.svg">
  <defs
     id="defs4" />
  <sodipodi:namedview
     id="base"
     pagecolor="#ffffff"
     bordercolor="#666666"
     borderopacity="1.0"
     inkscape:pageopacity="0.0"
     inkscape:pageshadow="2"
     inkscape:zoom="0.22627418"
     inkscape:cx="379.15687"
     inkscape:cy="720.21748"
     inkscape:document-units="px"
     inkscape:current-layer="layer1"
     showgrid="false"
     borderlayer="false"
     showborder="false"
     inkscape:showpageshadow="false"
     showguides="true"
     inkscape:guide-bbox="true"
     inkscape:snap-global="true"
     inkscape:snap-object-midpoints="true"
     inkscape:snap-center="true"
     inkscape:object-paths="false"
     inkscape:object-nodes="false"
     inkscape:window-width="831"
     inkscape:window-height="587"
     inkscape:window-x="777"
     inkscape:window-y="187"
     inkscape:window-maximized="0"
     inkscape:snap-nodes="true"
     fit-margin-top="0"
     fit-margin-left="0"
     fit-margin-right="0"
     fit-margin-bottom="0">
    <sodipodi:guide
       orientation="1,0"
       position="-1.1445892e-005,9.6615264e-006"
       id="guide3777" />
    <sodipodi:guide
       orientation="1,0"
       position="999.99999,9.6615264e-006"
       id="guide3779" />
    <sodipodi:guide
       orientation="1,0"
       position="499.99999,-499.99999"
       id="guide3781" />
    <sodipodi:guide
       orientation="0,1"
       position="-460.62957,800.00001"
       id="guide3785" />
    <sodipodi:guide
       orientation="0,1"
       position="-500.00001,1200"
       id="guide3787" />
    <sodipodi:guide
       orientation="0,1"
       position="-355.57401,400.00001"
       id="guide3789" />
    <sodipodi:guide
       orientation="0,1"
       position="218.19294,1600"
       id="guide3791" />
    <sodipodi:guide
       orientation="0,1"
       position="-242.43662,9.6615264e-006"
       id="guide3793" />
    <inkscape:grid
       type="xygrid"
       id="grid3871"
       empspacing="5"
       visible="true"
       enabled="true"
       snapvisiblegridlinesonly="true"
       originx="-1.1445892e-005"
       originy="9.6615264e-006" />
  </sodipodi:namedview>
  <metadata
     id="metadata7">
    <rdf:RDF>
      <cc:Work
         rdf:about="">
        <dc:format>image/svg+xml</dc:format>
        <dc:type
           rdf:resource="http://purl.org/dc/dcmitype/StillImage" />
        <dc:title></dc:title>
      </cc:Work>
    </rdf:RDF>
  </metadata>
  <g
     inkscape:groupmode="layer"
     id="layer2"
     inkscape:label="backCards"
     transform="translate(-1.1444092e-5,547.63775)" />
  <g
     inkscape:label="Layer 1"
     inkscape:groupmode="layer"
     id="layer1"
     transform="translate(-1.1444092e-5,547.63775)">
    <rect
       style="fill:#fbfbfb;fill-opacity:1;stroke:#999999;stroke-width:6.37388039;stroke-linecap:butt;stroke-linejoin:miter;stroke-miterlimit:4;stroke-dasharray:none;stroke-opacity:1"
       id="rect3007-4-50-3"
       width="993.6261"
       height="1593.6261"
       x="3.1869516"
       y="-544.45081"
       rx="60.373772"
       ry="61.035278" />
    <path
       style="fill:#492f92;fill-opacity:1"
       d="m 148.36672,273.73411 c 0.7445,-8.625 5.0609,-31.077 7.2947,-37.945 0.7833,-2.408 2.6256,-8.319 4.0941,-13.135 3.7023,-12.142 8.3986,-22.768 15.9269,-36.036 1.8547,-3.268 4.2327,-7.498 5.2843,-9.399 1.0517,-1.9 2.8253,-4.508 3.9414,-5.793 1.1162,-1.286 3.3658,-4.627 4.9993,-7.424 4.6378,-7.941 32.925,-36.031 40.7011,-40.417 1.5899,-0.897 4.177,-2.484 5.7489,-3.527 33.3818,-22.140003 73.994,-29.232003 135.3006,-23.626003 8.4293,0.77 32.4611,5.647003 44.8772,9.106003 4.4148,1.23 10.3254,2.879 13.1348,3.664 2.8094,0.786 7.2424,2.119 9.8511,2.962 2.6087,0.844 6.2208,2.011 8.0269,2.593 1.806,0.583 5.4115,1.7 8.0122,2.483 2.6007,0.783 6.377,2.222 8.3917,3.197 2.0147,0.976 5.6333,2.479 8.0414,3.341 2.408,0.862 6.1489,2.198 8.3132,2.97 2.1642,0.771 4.3413,1.74 4.8379,2.152 0.4967,0.412 3.6516,1.68 7.0108,2.816 3.3592,1.137 8.0779,3.059 10.4859,4.271 2.4081,1.213 5.4797,2.443 6.826,2.735 2.2241,0.481 5.3263,1.67 11.4168,4.374 1.204,0.535 7.1147,2.53 13.1348,4.433 9.631,3.045 16.7909,4.808 35.4329,8.725 17.5571,3.689 50.8233,3.489 69.2946,-0.417 13.9437,-2.948 16.5174,-3.568 22.2422,-5.358 25.1113,-7.851 46.564,-17.934 66.6492,-31.326 3.8784,-2.585 8.2009,-5.279 9.6056,-5.985 1.4047,-0.706 4.5242,-2.728 6.9323,-4.494 32.2885,-23.668003 58.469,-27.236003 77.189,-10.520003 9.3093,8.312003 21.6868,25.644003 21.6868,30.367003 0,1.393 3.4939,12.056 4.2826,13.07 0.3401,0.437 1.0312,3.898 1.5358,7.692 0.5046,3.793 1.4104,8.226 2.0127,9.851 2.1905,5.908 1.7958,46.421 -0.53,54.399 -0.4094,1.404 -1.2474,5.509 -1.8621,9.121 -0.6147,3.612 -1.893,9.03 -2.8408,12.04 -0.9477,3.01 -2.6212,8.429 -3.719,12.041 -1.0977,3.612 -2.2243,6.895 -2.5034,7.297 -0.2791,0.401 -1.2543,2.864 -2.1671,5.473 -2.8443,8.129 -15.4334,32.963 -19.2114,37.897 -1.9775,2.582 -4.569,6.358 -5.7589,8.391 -6.8033,11.624 -24.664,31.89 -36.7367,41.684 -3.612,2.93 -7.5525,6.166 -8.7565,7.191 -3.7586,3.2 -6.0393,4.807 -6.8213,4.807 -0.4143,0 -2.8253,1.567 -5.3577,3.482 -8.6245,6.522 -27.6749,15.161 -47.2924,21.447 -15.2036,4.871 -18.3125,5.692 -25.9048,6.84 -4.0134,0.607 -9.2673,1.576 -11.6753,2.154 -14.9461,3.589 -60.6295,4.175 -86.1059,1.105 -30.9891,-3.735 -61.7969,-10.886 -80.4101,-18.665 -3.2887,-1.374 -6.4442,-2.499 -7.0119,-2.499 -0.5679,0 -2.8026,-0.94 -4.9662,-2.09 -2.1635,-1.15 -6.3965,-3.16 -9.4065,-4.466 -3.0101,-1.307 -5.9297,-2.747 -6.488,-3.2 -1.5489,-1.258 -18.0735,-6.956 -23.4302,-8.08 -2.6087,-0.548 -6.7601,-1.675 -9.2253,-2.506 -10.56,-3.56 -51.3598,-3.636 -66.2998,-0.123 -6.3887,1.503 -8.16,1.976 -19.0857,5.106 -2.8717,0.822 -5.5879,1.495 -6.0359,1.495 -0.8944,0 -11.9543,4.146 -18.2962,6.859 -6.8401,2.926 -11.9329,4.913 -14.5942,5.693 -1.4047,0.412 -3.3749,1.323 -4.3783,2.025 -1.0033,0.703 -3.3019,1.933 -5.1079,2.734 -1.8061,0.801 -7.8809,4.016 -13.4997,7.145 -5.6188,3.13 -11.5294,6.352 -13.1348,7.161 -4.4231,2.228 -13.6768,7.799 -15.3239,9.225 -0.8027,0.694 -4.4148,3.058 -8.0268,5.253 -19.3863,11.78 -35.2285,14.192 -53.4973,8.143 -10.4625,-3.465 -22.1267,-11.961 -28.7884,-20.97 -1.5109,-2.043 -3.7182,-4.913 -4.9051,-6.378 -2.147,-2.649 -6.6039,-10.74 -8.9839,-16.309 -0.6859,-1.606 -1.705,-3.74 -2.2645,-4.743 -1.4618,-2.622 -6.8213,-19.223 -8.0098,-24.811 -0.555,-2.608 -1.3705,-6.22 -1.8123,-8.026 -2.6764,-10.941 -3.8398,-40.787 -2.2897,-58.742 z"
       id="path3808-4-7-42-5"
       inkscape:connector-curvature="0" />
  </g>
  <g
     inkscape:groupmode="layer"
     id="layer3"
     inkscape:label="stri[eys"
     style="display:inline"
     transform="translate(-1.1444092e-5,547.63775)" />
</svg>
