<?xml version="1.0" encoding="UTF-8" standalone="no"?>
<!-- Created with Inkscape (http://www.inkscape.org/) -->

<svg
   xmlns:dc="http://purl.org/dc/elements/1.1/"
   xmlns:cc="http://creativecommons.org/ns#"
   xmlns:rdf="http://www.w3.org/1999/02/22-rdf-syntax-ns#"
   xmlns:svg="http://www.w3.org/2000/svg"
   xmlns="http://www.w3.org/2000/svg"
   xmlns:sodipodi="http://sodipodi.sourceforge.net/DTD/sodipodi-0.dtd"
   xmlns:inkscape="http://www.inkscape.org/namespaces/inkscape"
   width="1000"
   height="1600"
   id="svg2"
   version="1.1"
   inkscape:version="0.91 r13725"
   sodipodi:docname="PWS3.svg">
  <defs
     id="defs4" />
  <sodipodi:namedview
     id="base"
     pagecolor="#ffffff"
     bordercolor="#666666"
     borderopacity="1.0"
     inkscape:pageopacity="0.0"
     inkscape:pageshadow="2"
     inkscape:zoom="0.16000001"
     inkscape:cx="776.01446"
     inkscape:cy="656.08504"
     inkscape:document-units="px"
     inkscape:current-layer="layer1"
     showgrid="false"
     borderlayer="false"
     showborder="false"
     inkscape:showpageshadow="false"
     showguides="true"
     inkscape:guide-bbox="true"
     inkscape:snap-global="true"
     inkscape:snap-object-midpoints="true"
     inkscape:snap-center="true"
     inkscape:object-paths="false"
     inkscape:object-nodes="false"
     inkscape:window-width="831"
     inkscape:window-height="587"
     inkscape:window-x="777"
     inkscape:window-y="187"
     inkscape:window-maximized="0"
     inkscape:snap-nodes="true"
     fit-margin-top="0"
     fit-margin-left="0"
     fit-margin-right="0"
     fit-margin-bottom="0">
    <sodipodi:guide
       orientation="1,0"
       position="-0.00065899075,-0.00093558566"
       id="guide3777" />
    <sodipodi:guide
       orientation="1,0"
       position="999.99935,-0.00093558566"
       id="guide3779" />
    <sodipodi:guide
       orientation="1,0"
       position="499.99935,-500.00095"
       id="guide3781" />
    <sodipodi:guide
       orientation="0,1"
       position="-460.63021,799.99905"
       id="guide3785" />
    <sodipodi:guide
       orientation="0,1"
       position="-500.00065,1199.9991"
       id="guide3787" />
    <sodipodi:guide
       orientation="0,1"
       position="-355.57465,399.99905"
       id="guide3789" />
    <sodipodi:guide
       orientation="0,1"
       position="218.1923,1599.9991"
       id="guide3791" />
    <sodipodi:guide
       orientation="0,1"
       position="-242.43726,-0.00093558566"
       id="guide3793" />
    <inkscape:grid
       type="xygrid"
       id="grid3871"
       empspacing="5"
       visible="true"
       enabled="true"
       snapvisiblegridlinesonly="true"
       originx="-0.00065899075"
       originy="-0.00093558566" />
  </sodipodi:namedview>
  <metadata
     id="metadata7">
    <rdf:RDF>
      <cc:Work
         rdf:about="">
        <dc:format>image/svg+xml</dc:format>
        <dc:type
           rdf:resource="http://purl.org/dc/dcmitype/StillImage" />
        <dc:title></dc:title>
      </cc:Work>
    </rdf:RDF>
  </metadata>
  <g
     inkscape:groupmode="layer"
     id="layer2"
     inkscape:label="backCards"
     transform="translate(-6.5898895e-4,547.6386)" />
  <g
     inkscape:label="Layer 1"
     inkscape:groupmode="layer"
     id="layer1"
     transform="translate(-6.5898895e-4,547.6386)">
    <rect
       style="fill:#fbfbfb;fill-opacity:1;stroke:#999999;stroke-width:6.37388039;stroke-linecap:butt;stroke-linejoin:miter;stroke-miterlimit:4;stroke-dasharray:none;stroke-opacity:1"
       id="rect3007-4-58"
       width="993.6261"
       height="1593.6261"
       x="3.1875992"
       y="-544.45166"
       rx="60.373772"
       ry="61.035278" />
    <path
       style="fill:#492f92;fill-opacity:1"
       d="m 148.36661,273.73315 c 0.7445,-8.624 5.0609,-31.077 7.2947,-37.945 0.7833,-2.408 2.6256,-8.318 4.0941,-13.134 3.7023,-12.143 8.3986,-22.768 15.9269,-36.036 1.8547,-3.269 4.2327,-7.498 5.2843,-9.399 1.0517,-1.901 2.8253,-4.508 3.9414,-5.794 1.1162,-1.286 3.3658,-4.626 4.9993,-7.423 4.6378,-7.941 32.925,-36.031 40.7011,-40.418 1.5899,-0.897 4.177,-2.483 5.7489,-3.526 33.3818,-22.140988 73.994,-29.232988 135.3006,-23.626988 8.4293,0.771 32.4611,5.646988 44.8772,9.106988 4.4148,1.23 10.3254,2.879 13.1348,3.664 2.8094,0.785 7.2424,2.118 9.8511,2.962 2.6087,0.843 6.2208,2.01 8.0269,2.593 1.806,0.583 5.4115,1.7 8.0122,2.483 2.6007,0.782 6.377,2.221 8.3917,3.197 2.0147,0.975 5.6333,2.479 8.0414,3.34 2.408,0.862 6.1489,2.199 8.3132,2.97 2.1642,0.772 4.3413,1.74 4.8379,2.152 0.4967,0.413 3.6516,1.68 7.0108,2.817 3.3592,1.137 8.0779,3.059 10.4859,4.271 2.4081,1.212 5.4797,2.442 6.826,2.734 2.2241,0.482 5.3263,1.67 11.4168,4.375 1.204,0.534 7.1147,2.529 13.1348,4.432 9.631,3.045 16.7909,4.808 35.4329,8.726 17.5571,3.689 50.8233,3.489 69.2946,-0.417 13.9437,-2.949 16.5174,-3.569 22.2422,-5.359 25.1113,-7.851 46.564,-17.934 66.6492,-31.325 3.8784,-2.586 8.2009,-5.279 9.6056,-5.986 1.4047,-0.706 4.5242,-2.728 6.9323,-4.493 32.2885,-23.667988 58.469,-27.236988 77.189,-10.520988 9.3093,8.312988 21.6868,25.643988 21.6868,30.366988 0,1.393 3.4939,12.056 4.2826,13.07 0.3401,0.438 1.0312,3.899 1.5358,7.692 0.5046,3.793 1.4104,8.226 2.0127,9.851 2.1905,5.909 1.7958,46.421 -0.53,54.399 -0.4094,1.405 -1.2474,5.51 -1.8621,9.122 -0.6147,3.612 -1.893,9.03 -2.8408,12.04 -0.9477,3.01 -2.6212,8.428 -3.719,12.04 -1.0977,3.612 -2.2243,6.896 -2.5034,7.297 -0.2791,0.402 -1.2543,2.864 -2.1671,5.473 -2.8443,8.13 -15.4334,32.96301 -19.2114,37.89701 -1.9775,2.583 -4.569,6.359 -5.7589,8.392 -6.8033,11.624 -24.664,31.889 -36.7367,41.683 -3.612,2.93 -7.5525,6.166 -8.7565,7.192 -3.7586,3.199 -6.0393,4.806 -6.8213,4.806 -0.4143,0 -2.8253,1.567 -5.3577,3.482 -8.6245,6.523 -27.6749,15.162 -47.2924,21.447 -15.2036,4.872 -18.3125,5.693 -25.9048,6.84 -4.0134,0.607 -9.2673,1.577 -11.6753,2.155 -14.9461,3.589 -60.6295,4.174 -86.1059,1.104 -30.9891,-3.735 -61.7969,-10.885 -80.4101,-18.664 -3.2887,-1.375 -6.4442,-2.499 -7.0119,-2.499 -0.5679,0 -2.8026,-0.941 -4.9662,-2.091 -2.1635,-1.149 -6.3965,-3.159 -9.4065,-4.466 -3.0101,-1.307 -5.9297,-2.747 -6.488,-3.2 -1.5489,-1.257 -18.0735,-6.956 -23.4302,-8.08 -2.6087,-0.547 -6.7601,-1.675 -9.2253,-2.506 -10.56,-3.56 -51.3598,-3.635 -66.2998,-0.122 -6.3887,1.502 -8.16,1.976 -19.0857,5.105 -2.8717,0.823 -5.5879,1.495 -6.0359,1.495 -0.8944,0 -11.9543,4.147 -18.2962,6.86 -6.8401,2.926 -11.9329,4.912 -14.5942,5.692 -1.4047,0.412 -3.3749,1.324 -4.3783,2.026 -1.0033,0.702 -3.3019,1.932 -5.1079,2.733 -1.8061,0.801 -7.8809,4.017 -13.4997,7.146 -5.6188,3.129 -11.5294,6.351 -13.1348,7.16 -4.4231,2.229 -13.6768,7.8 -15.3239,9.225 -0.8027,0.695 -4.4148,3.059 -8.0268,5.254 -19.3863,11.78 -35.2285,14.191 -53.4973,8.142 -10.4625,-3.464 -22.1267,-11.96 -28.7884,-20.969 -1.5109,-2.043 -3.7182,-4.914 -4.9051,-6.378 -2.147,-2.65 -6.6039,-10.741 -8.9839,-16.31 -0.6859,-1.605 -1.705,-3.739 -2.2645,-4.743 -1.4618,-2.622 -6.8213,-19.223 -8.0098,-24.81 -0.555,-2.609 -1.3705,-6.221 -1.8123,-8.027 -2.6764,-10.94 -3.8398,-40.787 -2.2897,-58.74201 z"
       id="path3808-4-7-6"
       inkscape:connector-curvature="0" />
    <path
       style="fill:#492f92;fill-opacity:1"
       d="m 148.36661,673.73314 c 0.7445,-8.624 5.0609,-31.077 7.2947,-37.945 0.7833,-2.408 2.6256,-8.318 4.0941,-13.134 3.7023,-12.143 8.3986,-22.768 15.9269,-36.036 1.8547,-3.269 4.2327,-7.498 5.2843,-9.399 1.0517,-1.901 2.8253,-4.508 3.9414,-5.794 1.1162,-1.286 3.3658,-4.626 4.9993,-7.423 4.6378,-7.941 32.925,-36.031 40.7011,-40.418 1.5899,-0.897 4.177,-2.483 5.7489,-3.526 33.3818,-22.141 73.994,-29.233 135.3006,-23.627 8.4293,0.771 32.4611,5.647 44.8772,9.107 4.4148,1.23 10.3254,2.879 13.1348,3.664 2.8094,0.785 7.2424,2.118 9.8511,2.962 2.6087,0.843 6.2208,2.01 8.0269,2.593 1.806,0.583 5.4115,1.7 8.0122,2.483 2.6007,0.782 6.377,2.221 8.3917,3.197 2.0147,0.975 5.6333,2.479 8.0414,3.34 2.408,0.862 6.1489,2.199 8.3132,2.97 2.1642,0.772 4.3413,1.74 4.8379,2.152 0.4967,0.413 3.6516,1.68 7.0108,2.817 3.3592,1.137 8.0779,3.059 10.4859,4.271 2.4081,1.212 5.4797,2.442 6.826,2.734 2.2241,0.482 5.3263,1.67 11.4168,4.375 1.204,0.534 7.1147,2.529 13.1348,4.432 9.631,3.045 16.7909,4.808 35.4329,8.726 17.5571,3.689 50.8233,3.489 69.2946,-0.417 13.9437,-2.949 16.5174,-3.569 22.2422,-5.359 25.1113,-7.851 46.564,-17.934 66.6492,-31.325 3.8784,-2.586 8.2009,-5.279 9.6056,-5.986 1.4047,-0.706 4.5242,-2.728 6.9323,-4.493 32.2885,-23.668 58.469,-27.237 77.1891,-10.521 9.3093,8.313 21.6868,25.644 21.6868,30.367 0,1.393 3.4938,12.056 4.2825,13.07 0.3401,0.438 1.0312,3.899 1.5358,7.692 0.5046,3.793 1.4104,8.226 2.0128,9.851 2.1904,5.909 1.7957,46.421 -0.53,54.399 -0.4095,1.405 -1.2475,5.51 -1.8622,9.122 -0.6147,3.612 -1.893,9.03 -2.8407,12.04 -0.9478,3.01 -2.6213,8.428 -3.7191,12.04 -1.0977,3.612 -2.2243,6.896 -2.5034,7.297 -0.2791,0.402 -1.2543,2.864 -2.167,5.473 -2.8444,8.13 -15.4335,32.963 -19.2115,37.897 -1.9775,2.583 -4.569,6.359 -5.7589,8.392 -6.8033,11.624 -24.664,31.889 -36.7367,41.683 -3.612,2.93 -7.5525,6.166 -8.7565,7.192 -3.7586,3.199 -6.0393,4.806 -6.8213,4.806 -0.4143,0 -2.8253,1.567 -5.3577,3.482 -8.6245,6.523 -27.6749,15.162 -47.2924,21.447 -15.2036,4.872 -18.3125,5.693 -25.9048,6.84 -4.0134,0.607 -9.2673,1.577 -11.6753,2.155 -14.9461,3.589 -60.6295,4.174 -86.1059,1.104 -30.9891,-3.735 -61.7969,-10.885 -80.4101,-18.664 -3.2887,-1.375 -6.4442,-2.499 -7.0119,-2.499 -0.5679,0 -2.8026,-0.941 -4.9662,-2.091 -2.1635,-1.149 -6.3965,-3.159 -9.4065,-4.466 -3.0101,-1.307 -5.9297,-2.747 -6.488,-3.2 -1.5489,-1.257 -18.0735,-6.956 -23.4302,-8.08 -2.6087,-0.547 -6.7601,-1.675 -9.2253,-2.506 -10.56,-3.56 -51.3598,-3.635 -66.2998,-0.122 -6.3887,1.502 -8.16,1.976 -19.0857,5.105 -2.8717,0.823 -5.5879,1.495 -6.0359,1.495 -0.8944,0 -11.9543,4.147 -18.2962,6.86 -6.8401,2.926 -11.9329,4.912 -14.5942,5.692 -1.4047,0.412 -3.3749,1.324 -4.3783,2.026 -1.0033,0.702 -3.3019,1.932 -5.1079,2.733 -1.8061,0.801 -7.8809,4.017 -13.4997,7.146 -5.6188,3.129 -11.5294,6.351 -13.1348,7.16 -4.4231,2.229 -13.6768,7.8 -15.3239,9.225 -0.8027,0.695 -4.4148,3.059 -8.0268,5.254 -19.3863,11.78 -35.2285,14.191 -53.4973,8.142 -10.4625,-3.464 -22.1267,-11.96 -28.7884,-20.969 -1.5109,-2.043 -3.7182,-4.914 -4.9051,-6.378 -2.147,-2.65 -6.6039,-10.741 -8.9839,-16.31 -0.6859,-1.605 -1.705,-3.739 -2.2645,-4.743 -1.4618,-2.622 -6.8213,-19.223 -8.0098,-24.81 -0.555,-2.609 -1.3705,-6.221 -1.8123,-8.027 -2.6764,-10.94 -3.8398,-40.787 -2.2897,-58.742 z"
       id="path3808-0-3-3"
       inkscape:connector-curvature="0" />
    <path
       style="fill:#492f92;fill-opacity:1;stroke:#ef3e42;stroke-opacity:1"
       d="m 148.36651,-126.26685 c 0.7446,-8.624 5.061,-31.077 7.2948,-37.944 0.7833,-2.409 2.6256,-8.319 4.0941,-13.135 3.7023,-12.143 8.3986,-22.768 15.9269,-36.036 1.8547,-3.269 4.2326,-7.498 5.2843,-9.399 1.0517,-1.901 2.8253,-4.508 3.9414,-5.794 1.1162,-1.286 3.3658,-4.626 4.9993,-7.423 4.6378,-7.941 32.925,-36.031 40.7011,-40.418 1.5899,-0.897 4.1769,-2.483 5.7489,-3.526 33.3818,-22.141 73.994,-29.233 135.3006,-23.627 8.4293,0.771 32.461,5.648 44.8772,9.107 4.4148,1.23 10.3254,2.879 13.1348,3.664 2.8094,0.785 7.2424,2.118 9.8511,2.962 2.6087,0.843 6.2208,2.01 8.0268,2.593 1.8061,0.583 5.4116,1.7 8.0123,2.483 2.6007,0.782 6.377,2.221 8.3917,3.197 2.0147,0.975 5.6333,2.479 8.0414,3.341 2.408,0.861 6.1489,2.198 8.3132,2.969 2.1642,0.772 4.3413,1.74 4.8379,2.152 0.4967,0.413 3.6516,1.68 7.0108,2.817 3.3592,1.137 8.0779,3.059 10.4859,4.271 2.4081,1.212 5.4797,2.443 6.826,2.734 2.224,0.482 5.3263,1.67 11.4168,4.375 1.204,0.534 7.1147,2.529 13.1348,4.432 9.631,3.045 16.7909,4.808 35.4329,8.726 17.5571,3.689 50.8232,3.489 69.2946,-0.417 13.9437,-2.949 16.5174,-3.569 22.2422,-5.359 25.1113,-7.851 46.564,-17.934 66.6492,-31.325 3.8784,-2.586 8.2009,-5.279 9.6056,-5.986 1.4047,-0.706 4.5242,-2.728 6.9323,-4.493 32.2884,-23.668 58.469,-27.237 77.189,-10.521 9.3093,8.313 21.6868,25.644 21.6868,30.367 0,1.393 3.4939,12.056 4.2825,13.07 0.3402,0.438 1.0313,3.899 1.5359,7.692 0.5046,3.793 1.4103,8.226 2.0127,9.851 2.1905,5.909 1.7958,46.421 -0.53,54.399 -0.4094,1.405 -1.2474,5.51 -1.8621,9.122 -0.6147,3.612 -1.893,9.03 -2.8408,12.04 -0.9477,3.01 -2.6213,8.428 -3.719,12.04 -1.0977,3.612 -2.2243,6.896 -2.5034,7.297 -0.2792,0.402 -1.2544,2.864 -2.1671,5.473 -2.8443,8.13 -15.4334,32.963 -19.2114,37.897 -1.9775,2.583 -4.569,6.359012 -5.7589,8.392012 -6.8033,11.624 -24.664,31.89 -36.7367,41.683 -3.612,2.93 -7.5525,6.167 -8.7565,7.192 -3.7586,3.199 -6.0393,4.807 -6.8213,4.807 -0.4144,0 -2.8253,1.566 -5.3577,3.481 -8.6245,6.523 -27.6749,15.162 -47.2924,21.447 -15.2036,4.872 -18.3125,5.6929996 -25.9048,6.8399996 -4.0134,0.607 -9.2673,1.577 -11.6754,2.155 -14.946,3.589 -60.6294,4.175 -86.1059,1.104 -30.989,-3.734 -61.7968,-10.8849996 -80.41,-18.6639996 -3.2888,-1.374 -6.4442,-2.499 -7.012,-2.499 -0.5678,0 -2.8026,-0.941 -4.9661,-2.091 -2.1635,-1.149 -6.3965,-3.159 -9.4065,-4.466 -3.0101,-1.307 -5.9297,-2.746 -6.488,-3.2 -1.5489,-1.257 -18.0735,-6.956 -23.4302,-8.08 -2.6087,-0.547 -6.7601,-1.675 -9.2254,-2.506 -10.5599,-3.56 -51.3597,-3.635 -66.2997,-0.122 -6.3887,1.502 -8.16,1.976 -19.0857,5.105 -2.8717,0.823 -5.5879,1.496 -6.0359,1.496 -0.8944,0 -11.9543,4.146 -18.2962,6.859 -6.8402,2.926 -11.933,4.912 -14.5942,5.692 -1.4047,0.412 -3.3749,1.324 -4.3783,2.026 -1.0033,0.702 -3.3019,1.932 -5.108,2.733 -1.806,0.801 -7.8808,4.017 -13.4996,7.146 -5.6188,3.129 -11.5294,6.3509996 -13.1348,7.1599996 -4.4231,2.229 -13.6768,7.8 -15.3239,9.225 -0.8027,0.695 -4.4148,3.059 -8.0269,5.254 -19.3862,11.7800004 -35.2284,14.1910004 -53.4972,8.1420004 -10.4625,-3.464 -22.1267,-11.9600004 -28.7884,-20.9690004 -1.5109,-2.043 -3.7182,-4.9139996 -4.9051,-6.3779996 -2.147,-2.65 -6.6039,-10.741 -8.9839,-16.31 -0.686,-1.605 -1.705,-3.739 -2.2645,-4.743 -1.4618,-2.622 -6.8213,-19.222 -8.0099,-24.81 -0.5549,-2.609 -1.3704,-6.221 -1.8122,-8.027 -2.6764,-10.94 -3.8398,-40.786012 -2.2898,-58.742012 z"
       id="path3808-9-7-4-1"
       inkscape:connector-curvature="0" />
  </g>
  <g
     inkscape:groupmode="layer"
     id="layer3"
     inkscape:label="stri[eys"
     style="display:inline"
     transform="translate(-6.5898895e-4,547.6386)" />
</svg>
