<?xml version="1.0" encoding="UTF-8" standalone="no"?>
<!-- Created with Inkscape (http://www.inkscape.org/) -->

<svg
   xmlns:dc="http://purl.org/dc/elements/1.1/"
   xmlns:cc="http://creativecommons.org/ns#"
   xmlns:rdf="http://www.w3.org/1999/02/22-rdf-syntax-ns#"
   xmlns:svg="http://www.w3.org/2000/svg"
   xmlns="http://www.w3.org/2000/svg"
   xmlns:sodipodi="http://sodipodi.sourceforge.net/DTD/sodipodi-0.dtd"
   xmlns:inkscape="http://www.inkscape.org/namespaces/inkscape"
   width="1000"
   height="1600"
   id="svg2"
   version="1.1"
   inkscape:version="0.91 r13725"
   sodipodi:docname="RDS3.svg">
  <defs
     id="defs4" />
  <sodipodi:namedview
     id="base"
     pagecolor="#ffffff"
     bordercolor="#666666"
     borderopacity="1.0"
     inkscape:pageopacity="0.0"
     inkscape:pageshadow="2"
     inkscape:zoom="0.079999995"
     inkscape:cx="2856.1546"
     inkscape:cy="201.70919"
     inkscape:document-units="px"
     inkscape:current-layer="layer1"
     showgrid="false"
     borderlayer="false"
     showborder="false"
     inkscape:showpageshadow="false"
     showguides="true"
     inkscape:guide-bbox="true"
     inkscape:snap-global="true"
     inkscape:snap-object-midpoints="true"
     inkscape:snap-center="true"
     inkscape:object-paths="false"
     inkscape:object-nodes="false"
     inkscape:window-width="831"
     inkscape:window-height="587"
     inkscape:window-x="777"
     inkscape:window-y="187"
     inkscape:window-maximized="0"
     inkscape:snap-nodes="true"
     fit-margin-top="0"
     fit-margin-left="0"
     fit-margin-right="0"
     fit-margin-bottom="0">
    <sodipodi:guide
       orientation="1,0"
       position="0.0001745224,0.00027750255"
       id="guide3777" />
    <sodipodi:guide
       orientation="1,0"
       position="1000.0001,0.00027750255"
       id="guide3779" />
    <sodipodi:guide
       orientation="1,0"
       position="500.00017,-499.99972"
       id="guide3781" />
    <sodipodi:guide
       orientation="0,1"
       position="-460.62939,800.00028"
       id="guide3785" />
    <sodipodi:guide
       orientation="0,1"
       position="-499.99983,1200.0002"
       id="guide3787" />
    <sodipodi:guide
       orientation="0,1"
       position="-355.57383,400.00028"
       id="guide3789" />
    <sodipodi:guide
       orientation="0,1"
       position="218.19312,1600.0002"
       id="guide3791" />
    <sodipodi:guide
       orientation="0,1"
       position="-242.43644,0.00027750255"
       id="guide3793" />
    <inkscape:grid
       type="xygrid"
       id="grid3871"
       empspacing="5"
       visible="true"
       enabled="true"
       snapvisiblegridlinesonly="true"
       originx="0.0001745224"
       originy="0.00027750255" />
  </sodipodi:namedview>
  <metadata
     id="metadata7">
    <rdf:RDF>
      <cc:Work
         rdf:about="">
        <dc:format>image/svg+xml</dc:format>
        <dc:type
           rdf:resource="http://purl.org/dc/dcmitype/StillImage" />
        <dc:title></dc:title>
      </cc:Work>
    </rdf:RDF>
  </metadata>
  <g
     inkscape:groupmode="layer"
     id="layer2"
     inkscape:label="backCards"
     transform="translate(1.745224e-4,547.6375)" />
  <g
     inkscape:label="Layer 1"
     inkscape:groupmode="layer"
     id="layer1"
     transform="translate(1.745224e-4,547.6375)">
    <rect
       style="fill:#fbfbfb;fill-opacity:1;stroke:#999999;stroke-width:6.37388039;stroke-linecap:butt;stroke-linejoin:miter;stroke-miterlimit:4;stroke-dasharray:none;stroke-opacity:1"
       id="rect3007-60"
       width="993.6261"
       height="1593.6261"
       x="3.1867657"
       y="-544.45056"
       rx="60.373772"
       ry="61.035278" />
    <g
       transform="translate(1291.9596,1006.1733)"
       id="g4985-6-5">
      <rect
         transform="matrix(0.8847019,-0.46615722,0.8847019,0.46615722,0,0)"
         y="-1876.0519"
         x="599.10236"
         height="381.77835"
         width="381.77835"
         id="rect4647-5-5-3-4"
         style="fill:none;stroke:#ef3e42;stroke-width:22.0216732;stroke-miterlimit:4;stroke-dasharray:none;stroke-opacity:1" />
      <path
         inkscape:connector-curvature="0"
         id="rect4647-8-8-6"
         d="m -791.95964,-1331.7798 -7.4062,3.9063 0,348.12499 7.4062,3.90625 7.4063,-3.90625 0,-348.12499 -7.4063,-3.9063 z m -22.1874,11.6875 -14.7813,7.7813 0,316.99999 14.7813,7.78125 0,-332.56254 z m 44.375,0 0,332.56254 14.8124,-7.8125 0,-316.93754 -14.8124,-7.8125 z m -73.9688,15.5938 -14.7812,7.7812 0,285.8125 14.7812,7.7813 0,-301.375 z m 103.5625,0 0,301.375 14.7813,-7.7813 0,-285.8125 -14.7813,-7.7812 z m -133.125,15.5625 -14.7813,7.8125 0,254.625 14.7813,7.8125 0,-270.25 z m 162.6875,0.031 0,270.1875 14.7812,-7.7812 0,-254.625 -14.7812,-7.7813 z m -192.25,15.5625 -14.8125,7.8125 0,223.4375 14.8125,7.8125 0,-239.0625 z m 221.8438,0.031 0,239 14.7812,-7.7813 0,-223.4375 -14.7812,-7.7812 z m -251.4376,15.5625 -14.7812,7.7812 0,192.3125 14.7812,7.7813 0,-207.875 z m 281,0 0,207.875 14.7813,-7.7813 0,-192.3125 -14.7813,-7.7812 z m -310.5624,15.5625 -14.8126,7.8125 0,161.125 14.8126,7.8125 0,-176.75 z m 340.1562,0.031 0,176.6875 14.7812,-7.7812 0,-161.125 -14.7812,-7.7813 z m -369.75,15.5625 -14.78116,7.7813 0,130 14.78116,7.7812 0,-145.5625 z m 399.3125,0.031 0,145.5 14.7813,-7.7813 0,-129.9375 -14.7813,-7.7812 z m -428.87496,15.5625 -14.7813,7.7812 0,98.8125 14.7813,7.7813 0,-114.375 z m 458.43746,0 0,114.375 14.8125,-7.8125 0,-98.75 -14.8125,-7.8125 z m -488.03116,15.5937 -14.7813,7.7813 0,67.625 14.7813,7.7812 0,-83.1875 z m 517.62496,0 0,83.1875 14.7812,-7.7812 0,-67.625 -14.7812,-7.7813 z m -547.18756,15.5625 -14.7812,7.7813 0,36.5 14.7812,7.7812 0,-52.0625 z m 576.74996,0 0,52.0625 14.7813,-7.8125 0,-36.4375 -14.7813,-7.8125 z m -606.34366,15.5938 -14.7813,7.7812 0,5.3125 14.7813,7.7813 0,-20.875 z m 635.93746,0 0,20.875 14.7812,-7.8125 0,-5.25 -14.7812,-7.8125 z"
         style="fill:#ef3e42;fill-opacity:1;stroke:none" />
    </g>
    <g
       transform="translate(1291.9596,1406.1733)"
       id="g4985-3-7">
      <rect
         transform="matrix(0.8847019,-0.46615722,0.8847019,0.46615722,0,0)"
         y="-1876.0519"
         x="599.10236"
         height="381.77835"
         width="381.77835"
         id="rect4647-5-5-2-9"
         style="fill:none;stroke:#ef3e42;stroke-width:22.0216732;stroke-miterlimit:4;stroke-dasharray:none;stroke-opacity:1" />
      <path
         inkscape:connector-curvature="0"
         id="rect4647-8-86-3"
         d="m -791.95964,-1331.7798 -7.4062,3.9063 0,348.12499 7.4062,3.90625 7.4063,-3.90625 0,-348.12499 -7.4063,-3.9063 z m -22.1874,11.6875 -14.7813,7.7813 0,316.99999 14.7813,7.78125 0,-332.56254 z m 44.375,0 0,332.56254 14.8124,-7.8125 0,-316.93754 -14.8124,-7.8125 z m -73.9688,15.5938 -14.7812,7.7812 0,285.8125 14.7812,7.7813 0,-301.375 z m 103.5625,0 0,301.375 14.7813,-7.7813 0,-285.8125 -14.7813,-7.7812 z m -133.125,15.5625 -14.7813,7.8125 0,254.625 14.7813,7.8125 0,-270.25 z m 162.6875,0.031 0,270.1875 14.7812,-7.7812 0,-254.625 -14.7812,-7.7813 z m -192.25,15.5625 -14.8125,7.8125 0,223.4375 14.8125,7.8125 0,-239.0625 z m 221.8438,0.031 0,239 14.7812,-7.7813 0,-223.4375 -14.7812,-7.7812 z m -251.4376,15.5625 -14.7812,7.7812 0,192.3125 14.7812,7.7813 0,-207.875 z m 281,0 0,207.875 14.7813,-7.7813 0,-192.3125 -14.7813,-7.7812 z m -310.5624,15.5625 -14.8126,7.8125 0,161.125 14.8126,7.8125 0,-176.75 z m 340.1562,0.031 0,176.6875 14.7812,-7.7812 0,-161.125 -14.7812,-7.7813 z m -369.75,15.5625 -14.78116,7.7813 0,130 14.78116,7.7812 0,-145.5625 z m 399.3125,0.031 0,145.5 14.7813,-7.7813 0,-129.9375 -14.7813,-7.7812 z m -428.87496,15.5625 -14.7813,7.7812 0,98.8125 14.7813,7.7813 0,-114.375 z m 458.43746,0 0,114.375 14.8125,-7.8125 0,-98.75 -14.8125,-7.8125 z m -488.03116,15.5937 -14.7813,7.7813 0,67.625 14.7813,7.7812 0,-83.1875 z m 517.62496,0 0,83.1875 14.7812,-7.7812 0,-67.625 -14.7812,-7.7813 z m -547.18756,15.5625 -14.7812,7.7813 0,36.5 14.7812,7.7812 0,-52.0625 z m 576.74996,0 0,52.0625 14.7813,-7.8125 0,-36.4375 -14.7813,-7.8125 z m -606.34366,15.5938 -14.7813,7.7812 0,5.3125 14.7813,7.7813 0,-20.875 z m 635.93746,0 0,20.875 14.7812,-7.8125 0,-5.25 -14.7812,-7.8125 z"
         style="fill:#ef3e42;fill-opacity:1;stroke:none" />
    </g>
    <g
       transform="translate(1291.9596,1806.1733)"
       id="g4985-0-4">
      <rect
         transform="matrix(0.8847019,-0.46615722,0.8847019,0.46615722,0,0)"
         y="-1876.0519"
         x="599.10236"
         height="381.77835"
         width="381.77835"
         id="rect4647-5-5-1-7"
         style="fill:none;stroke:#ef3e42;stroke-width:22.0216732;stroke-miterlimit:4;stroke-dasharray:none;stroke-opacity:1" />
      <path
         inkscape:connector-curvature="0"
         id="rect4647-8-2-8"
         d="m -791.95964,-1331.7798 -7.4062,3.9063 0,348.12499 7.4062,3.90625 7.4063,-3.90625 0,-348.12499 -7.4063,-3.9063 z m -22.1874,11.6875 -14.7813,7.7813 0,316.99999 14.7813,7.78125 0,-332.56254 z m 44.375,0 0,332.56254 14.8124,-7.8125 0,-316.93754 -14.8124,-7.8125 z m -73.9688,15.5938 -14.7812,7.7812 0,285.8125 14.7812,7.7813 0,-301.375 z m 103.5625,0 0,301.375 14.7813,-7.7813 0,-285.8125 -14.7813,-7.7812 z m -133.125,15.5625 -14.7813,7.8125 0,254.625 14.7813,7.8125 0,-270.25 z m 162.6875,0.031 0,270.1875 14.7812,-7.7812 0,-254.625 -14.7812,-7.7813 z m -192.25,15.5625 -14.8125,7.8125 0,223.4375 14.8125,7.8125 0,-239.0625 z m 221.8438,0.031 0,239 14.7812,-7.7813 0,-223.4375 -14.7812,-7.7812 z m -251.4376,15.5625 -14.7812,7.7812 0,192.3125 14.7812,7.7813 0,-207.875 z m 281,0 0,207.875 14.7813,-7.7813 0,-192.3125 -14.7813,-7.7812 z m -310.5624,15.5625 -14.8126,7.8125 0,161.125 14.8126,7.8125 0,-176.75 z m 340.1562,0.031 0,176.6875 14.7812,-7.7812 0,-161.125 -14.7812,-7.7813 z m -369.75,15.5625 -14.78116,7.7813 0,130 14.78116,7.7812 0,-145.5625 z m 399.3125,0.031 0,145.5 14.7813,-7.7813 0,-129.9375 -14.7813,-7.7812 z m -428.87496,15.5625 -14.7813,7.7812 0,98.8125 14.7813,7.7813 0,-114.375 z m 458.43746,0 0,114.375 14.8125,-7.8125 0,-98.75 -14.8125,-7.8125 z m -488.03116,15.5937 -14.7813,7.7813 0,67.625 14.7813,7.7812 0,-83.1875 z m 517.62496,0 0,83.1875 14.7812,-7.7812 0,-67.625 -14.7812,-7.7813 z m -547.18756,15.5625 -14.7812,7.7813 0,36.5 14.7812,7.7812 0,-52.0625 z m 576.74996,0 0,52.0625 14.7813,-7.8125 0,-36.4375 -14.7813,-7.8125 z m -606.34366,15.5938 -14.7813,7.7812 0,5.3125 14.7813,7.7813 0,-20.875 z m 635.93746,0 0,20.875 14.7812,-7.8125 0,-5.25 -14.7812,-7.8125 z"
         style="fill:#ef3e42;fill-opacity:1;stroke:none" />
    </g>
  </g>
  <g
     inkscape:groupmode="layer"
     id="layer3"
     inkscape:label="stri[eys"
     style="display:inline"
     transform="translate(1.745224e-4,547.6375)" />
</svg>
