<?xml version="1.0" encoding="UTF-8" standalone="no"?>
<!-- Created with Inkscape (http://www.inkscape.org/) -->

<svg
   xmlns:dc="http://purl.org/dc/elements/1.1/"
   xmlns:cc="http://creativecommons.org/ns#"
   xmlns:rdf="http://www.w3.org/1999/02/22-rdf-syntax-ns#"
   xmlns:svg="http://www.w3.org/2000/svg"
   xmlns="http://www.w3.org/2000/svg"
   xmlns:sodipodi="http://sodipodi.sourceforge.net/DTD/sodipodi-0.dtd"
   xmlns:inkscape="http://www.inkscape.org/namespaces/inkscape"
   width="1000"
   height="1600"
   id="svg2"
   version="1.1"
   inkscape:version="0.91 r13725"
   sodipodi:docname="RWS1.svg">
  <defs
     id="defs4" />
  <sodipodi:namedview
     id="base"
     pagecolor="#ffffff"
     bordercolor="#666666"
     borderopacity="1.0"
     inkscape:pageopacity="0.0"
     inkscape:pageshadow="2"
     inkscape:zoom="0.11313709"
     inkscape:cx="139.38051"
     inkscape:cy="542.09758"
     inkscape:document-units="px"
     inkscape:current-layer="layer1"
     showgrid="false"
     borderlayer="false"
     showborder="false"
     inkscape:showpageshadow="false"
     showguides="true"
     inkscape:guide-bbox="true"
     inkscape:snap-global="true"
     inkscape:snap-object-midpoints="true"
     inkscape:snap-center="true"
     inkscape:object-paths="false"
     inkscape:object-nodes="false"
     inkscape:window-width="831"
     inkscape:window-height="587"
     inkscape:window-x="777"
     inkscape:window-y="187"
     inkscape:window-maximized="0"
     inkscape:snap-nodes="true"
     fit-margin-top="0"
     fit-margin-left="0"
     fit-margin-right="0"
     fit-margin-bottom="0">
    <sodipodi:guide
       orientation="1,0"
       position="-1.0490417e-005,-1.0490417e-005"
       id="guide3777" />
    <sodipodi:guide
       orientation="1,0"
       position="999.99999,-1.0490417e-005"
       id="guide3779" />
    <sodipodi:guide
       orientation="1,0"
       position="499.99999,-500.00001"
       id="guide3781" />
    <sodipodi:guide
       orientation="0,1"
       position="-460.62957,799.99999"
       id="guide3785" />
    <sodipodi:guide
       orientation="0,1"
       position="-500.00001,1200"
       id="guide3787" />
    <sodipodi:guide
       orientation="0,1"
       position="-355.57401,399.99999"
       id="guide3789" />
    <sodipodi:guide
       orientation="0,1"
       position="218.19294,1600"
       id="guide3791" />
    <sodipodi:guide
       orientation="0,1"
       position="-242.43662,-1.0490417e-005"
       id="guide3793" />
    <inkscape:grid
       type="xygrid"
       id="grid3871"
       empspacing="5"
       visible="true"
       enabled="true"
       snapvisiblegridlinesonly="true"
       originx="-1.0490417e-005"
       originy="-1.0490417e-005" />
  </sodipodi:namedview>
  <metadata
     id="metadata7">
    <rdf:RDF>
      <cc:Work
         rdf:about="">
        <dc:format>image/svg+xml</dc:format>
        <dc:type
           rdf:resource="http://purl.org/dc/dcmitype/StillImage" />
        <dc:title></dc:title>
      </cc:Work>
    </rdf:RDF>
  </metadata>
  <g
     inkscape:groupmode="layer"
     id="layer2"
     inkscape:label="backCards"
     transform="translate(-1.0490417e-5,547.63781)" />
  <g
     inkscape:label="Layer 1"
     inkscape:groupmode="layer"
     id="layer1"
     transform="translate(-1.0490417e-5,547.63781)">
    <rect
       style="fill:#fbfbfb;fill-opacity:1;stroke:#999999;stroke-width:6.37388039;stroke-linecap:butt;stroke-linejoin:miter;stroke-miterlimit:4;stroke-dasharray:none;stroke-opacity:1"
       id="rect3007-1"
       width="993.6261"
       height="1593.6261"
       x="3.1869507"
       y="-544.45087"
       rx="60.373772"
       ry="61.035278" />
    <g
       id="g4631-2-5"
       transform="translate(1262.6515,1858.0278)">
      <path
         inkscape:connector-curvature="0"
         id="path3808-48-9-6"
         d="m -1114.285,-1584.2948 c 0.7445,-8.6248 5.0609,-31.0773 7.2947,-37.9449 0.7833,-2.4081 2.6256,-8.3187 4.0941,-13.1348 3.7023,-12.1425 8.3986,-22.7682 15.9269,-36.0358 1.8547,-3.2687 4.2327,-7.4981 5.2843,-9.399 1.0517,-1.9007 2.8253,-4.5079 3.9414,-5.7938 1.1162,-1.2858 3.3658,-4.6263 4.9993,-7.4232 4.6378,-7.9411 32.925,-36.0313 40.7011,-40.4177 1.5899,-0.8969 4.177,-2.4837 5.7489,-3.5263 33.38179,-22.1407 73.99399,-29.2326 135.30059,-23.6267 8.4293,0.7708 32.4611,5.6473 44.8772,9.1065 4.4148,1.2299 10.3254,2.8788 13.1348,3.6642 2.8094,0.7854 7.2424,2.1182 9.8511,2.9617 2.6087,0.8435 6.2208,2.0106 8.0269,2.5933 1.806,0.5828 5.4115,1.7 8.0122,2.4828 2.6007,0.7828 6.377,2.2214 8.3917,3.1971 2.0147,0.9756 5.6333,2.4789 8.0414,3.3407 2.408,0.8617 6.1489,2.1981 8.3132,2.9696 2.1642,0.7716 4.3413,1.7401 4.8379,2.1523 0.4967,0.4122 3.6516,1.6796 7.0108,2.8165 3.3592,1.1369 8.0779,3.0588 10.4859,4.271 2.4081,1.2122 5.4797,2.4426 6.826,2.7342 2.2241,0.4816 5.3263,1.6703 11.4168,4.3747 1.204,0.5346 7.1147,2.5293 13.1348,4.4326 9.631,3.0449 16.7909,4.808 35.4329,8.7252 17.5571,3.6892 50.8233,3.4891 69.2946,-0.4169 13.9437,-2.9486 16.5174,-3.5686 22.2422,-5.3585 25.1113,-7.8509 46.564,-17.9338 66.6492,-31.3252 3.8784,-2.5859 8.2009,-5.2795 9.6056,-5.9857 1.4047,-0.7062 4.5242,-2.7283 6.9323,-4.4934 32.2885,-23.6682 58.469,-27.2366 77.189,-10.5209 9.3093,8.3126 21.6868,25.6444 21.6868,30.3672 0,1.393 3.4939,12.0562 4.2826,13.0702 0.3401,0.4373 1.0312,3.8986 1.5358,7.6918 0.5046,3.7932 1.4104,8.2262 2.0127,9.8511 2.1905,5.9082 1.7958,46.421 -0.53,54.399 -0.4094,1.4047 -1.2474,5.5093 -1.8621,9.1214 -0.6147,3.612 -1.893,9.0301 -2.8408,12.0402 -0.9477,3.01 -2.6212,8.4282 -3.719,12.0402 -1.0977,3.6121 -2.2243,6.8958 -2.5034,7.2971 -0.2791,0.4014 -1.2543,2.8642 -2.1671,5.4729 -2.8443,8.1297 -15.4334,32.9634 -19.2114,37.8971 -1.9775,2.5823 -4.569,6.3586 -5.7589,8.3917 -6.8033,11.6239 -24.664,31.8896 -36.7367,41.6832 -3.612,2.9303 -7.5525,6.1664 -8.7565,7.1914 -3.7586,3.1997 -6.0393,4.807 -6.8213,4.807 -0.4143,0 -2.8253,1.5669 -5.3577,3.4819 -8.6245,6.5223 -27.6749,15.1615 -47.2924,21.4471 -15.2036,4.8712 -18.3125,5.6921 -25.9048,6.8398 -4.0134,0.6068 -9.2673,1.5763 -11.6753,2.1545 -14.9461,3.5887 -60.6295,4.1747 -86.1059,1.1043 -30.9891,-3.7346 -61.7969,-10.8856 -80.4101,-18.6642 -3.2887,-1.3744 -6.4442,-2.4989 -7.0119,-2.4989 -0.5679,0 -2.8026,-0.9408 -4.9662,-2.0906 -2.1635,-1.1498 -6.3965,-3.1597 -9.4065,-4.4664 -3.0101,-1.3066 -5.9297,-2.7465 -6.488,-3.1998 -1.5489,-1.2575 -18.0735,-6.956 -23.4302,-8.08 -2.6087,-0.5473 -6.7601,-1.6751 -9.2253,-2.5062 -10.56,-3.5599 -51.3598,-3.635 -66.2998,-0.122 -6.3887,1.5021 -8.16,1.9759 -19.0857,5.1051 -2.8717,0.8224 -5.5879,1.4954 -6.0359,1.4954 -0.8944,0 -11.9543,4.1463 -18.2962,6.8592 -6.8401,2.926 -11.9329,4.9125 -14.5942,5.6926 -1.4047,0.4117 -3.3749,1.3233 -4.3783,2.0257 -1.0033,0.7024 -3.3019,1.9323 -5.1079,2.7333 -1.8061,0.8008 -7.8809,4.0164 -13.4997,7.1455 -5.6188,3.1292 -11.5294,6.3514 -13.1348,7.1602 -4.4231,2.2288 -13.6768,7.7996 -15.3239,9.2251 -0.8027,0.6948 -4.41479,3.0589 -8.02679,5.2538 -19.3863,11.78 -35.2285,14.1911 -53.4973,8.1422 -10.4625,-3.4642 -22.1267,-11.9604 -28.7884,-20.9692 -1.5109,-2.0434 -3.7182,-4.9135 -4.9051,-6.3782 -2.147,-2.6493 -6.6039,-10.7406 -8.9839,-16.3094 -0.6859,-1.6054 -1.705,-3.7398 -2.2645,-4.7431 -1.4618,-2.622 -6.8213,-19.2227 -8.0098,-24.8102 -0.555,-2.6087 -1.3705,-6.2208 -1.8123,-8.0268 -2.6764,-10.9406 -3.8398,-40.7867 -2.2897,-58.7418 z"
         style="fill:#000000;fill-opacity:0;stroke:#ef3e42;stroke-width:20;stroke-miterlimit:4;stroke-dasharray:none;stroke-opacity:1" />
      <path
         inkscape:connector-curvature="0"
         id="path3808-9-2-0-0"
         d="m -467.69787,-1770.1961 c -2.1427,-0.023 -4.3467,0.1218 -6.5937,0.4063 l 0,247.2812 c 5.1673,-5.3456 10.3742,-11.3007 14.8124,-16.875 l 0,-229.9062 c -2.6502,-0.5703 -5.3819,-0.8757 -8.2187,-0.9063 z m -21.375,4.2187 c -4.7434,1.7887 -9.6736,4.1333 -14.7813,7.0626 l 0,260.9687 c 0.5683,-0.3417 1.0401,-0.5938 1.1876,-0.5938 0.782,0 3.0539,-1.6128 6.8124,-4.8125 0.9326,-0.7939 3.9895,-3.2851 6.7813,-5.5625 l 0,-257.0625 z m -444.2187,2.625 c -4.8897,0.084 -9.6266,0.2711 -14.2188,0.5938 l 0,278.125 c 1.0119,-0.5349 2.2667,-1.0556 3.25,-1.3438 2.2351,-0.6552 6.2712,-2.2073 11.5312,-4.4062 l 0,-272.9688 c -0.186,0 -0.3769,0 -0.5624,0 z m 15.3437,0.094 0,266.9375 c 3.3877,-1.2613 6.1402,-2.2188 6.5625,-2.2188 0.448,0 3.1908,-0.6776 6.0625,-1.5 0.8818,-0.2526 1.3865,-0.4051 2.1563,-0.625 l 0,-261.8749 c -5.076,-0.336 -9.9938,-0.5776 -14.7813,-0.7188 z m 473.25,0.6562 0,202.125 c 0.0295,-0.039 0.0645,-0.087 0.0937,-0.125 2.6839,-3.5049 9.7629,-17.0012 14.6876,-27.4687 l 0,-159.25 c -3.6452,-4.698 -7.7478,-9.2924 -11.375,-12.5313 -1.1078,-0.9891 -2.2465,-1.9028 -3.4063,-2.75 z m -443.6875,1.3438 0,256.625 c 0.698,-0.167 1.3036,-0.3069 2.125,-0.5 3.2051,-0.7537 7.656,-1.3257 12.6875,-1.75 l 0,-251.8438 c -5.7965,-1.1309 -11.0572,-2.0378 -14.8125,-2.5312 z m -73.9375,0.031 c -5.1016,0.7057 -10.03,1.5691 -14.7813,2.625 l 0,289.9375 c 2.645,-1.426 6.0431,-3.2896 9.8438,-5.4062 1.6959,-0.9445 3.2885,-1.7961 4.9375,-2.6875 l 0,-284.4688 z m 103.5313,5.625 0,247.9688 c 4.961,-0.1111 9.977,-0.1018 14.7812,0.031 l 0,-244.2812 c -0.7628,-0.2126 -1.3886,-0.3973 -2.0938,-0.5938 -3.4934,-0.9732 -7.9611,-2.0503 -12.6874,-3.125 z m -133.0938,1.0313 c -5.1128,1.6668 -10.02773,3.5947 -14.78123,5.75 l 0,298.0937 c 0.9737,-0.5536 1.946,-1.1163 2.9374,-1.7187 3.6122,-2.1949 7.22863,-4.5552 8.03133,-5.25 0.5451,-0.4718 2.0518,-1.4541 3.8125,-2.5625 l 0,-294.3125 z m 473.25,5.375 c -2.3853,1.7374 -5.4066,3.6527 -6.7812,4.3437 -1.2136,0.6101 -4.5988,2.7117 -8,4.9376 l 0,258.2187 c 5.4386,-2.2841 10.4537,-4.6023 14.7812,-6.875 l 0,-260.625 z m -310.5938,1.4687 0,241.0313 c 3.9674,0.4291 7.2128,0.9901 9.2813,1.6875 1.474,0.4969 3.5418,1.0721 5.5313,1.5937 l 0,-239.6249 c -0.1804,-0.058 -0.5321,-0.1686 -0.6876,-0.2188 -1.806,-0.5827 -5.4225,-1.7503 -8.0312,-2.5938 -1.631,-0.5274 -3.8792,-1.2184 -6.0938,-1.875 z m -192.21873,6.7188 c -1.6308,0.9902 -3.2475,2.0038 -4.8437,3.0625 -1.5721,1.0426 -4.1602,2.6344 -5.75,3.5313 -1.0572,0.5963 -2.5145,1.6377 -4.2188,3 l 0,290.2812 c 4.8945,-0.228 9.7917,-1.1804 14.8125,-2.8438 l 0,-297.0312 z m 221.81253,3.0312 0,238.7813 c 5.7527,1.9278 11.4639,4.0669 12.3438,4.7812 0.2881,0.234 1.2035,0.7382 2.4374,1.3438 l 0,-239.0937 c -1.9915,-0.711 -4.1299,-1.4604 -5.8124,-2.0626 -2.4082,-0.8617 -6.0166,-2.3681 -8.0313,-3.3437 -0.2591,-0.1255 -0.6264,-0.2679 -0.9375,-0.4063 z m 251.4062,7.3126 c -4.8216,2.7879 -9.7305,5.4048 -14.7812,7.875 l 0,251.6249 c 2.2386,-0.6946 4.5798,-1.4418 7.6875,-2.4375 2.3801,-0.7626 4.748,-1.5823 7.0937,-2.4062 l 0,-254.6562 z m -221.8437,4.5312 0,240.0625 c 1.6782,0.8172 3.1751,1.4062 3.625,1.4062 0.5678,0 3.7424,1.1256 7.0313,2.5 1.3207,0.552 2.7169,1.0804 4.1562,1.625 l 0,-239.4375 c -1.4534,-0.5394 -3.2192,-1.2606 -4.75,-2.0312 -2.3111,-1.1634 -6.7392,-2.9755 -10.0625,-4.125 z m -280.96873,8.125 c -5.301,5.1648 -10.6439,10.6764 -14.7813,15.3125 l 0,254.5937 c 2.872,1.5755 5.7749,2.8792 8.5937,3.8125 2.0904,0.6921 4.1518,1.2495 6.1876,1.7188 l 0,-275.4375 z m 473.25003,1.875 c -4.7975,1.9771 -9.7093,3.8646 -14.7813,5.625 l 0,245.8437 c 2.5174,-0.5837 7.4804,-1.5096 11.3437,-2.0937 1.2522,-0.1893 2.3549,-0.3714 3.4376,-0.5625 l 0,-248.8125 z m 162.6562,0.125 0,85.4687 c 0.3832,-1.7104 0.7287,-3.4019 0.9688,-4.8125 0.6147,-3.612 1.4655,-7.7203 1.875,-9.125 2.3258,-7.978 2.7217,-48.4981 0.5312,-54.4062 -0.6024,-1.6249 -1.5267,-6.0506 -2.0312,-9.8438 -0.4303,-3.2344 -0.9755,-6.1985 -1.3438,-7.2812 z m -325.3125,1.5938 0,238.7812 c 4.6486,1.3532 9.594,2.6423 14.7813,3.875 l 0,-237.8125 c -0.9726,-0.2953 -1.958,-0.5867 -2.9688,-0.9063 -4.8711,-1.54 -9.5201,-3.0996 -11.8125,-3.9374 z m 133.0937,8.5312 c -3.152,0.8288 -7.2252,1.7341 -14.8124,3.3438 l 0,240.7499 c 5.3277,-0.1863 10.3402,-0.472 14.8124,-0.8437 l 0,-243.25 z m -103.5312,0.25 0,237.0625 c 4.8346,0.9507 9.7633,1.85 14.7812,2.6562 l 0,-236.4687 c -5.8645,-1.2435 -10.8171,-2.3199 -14.7812,-3.25 z m 73.9375,5.4062 c -4.6715,0.4766 -9.6697,0.7955 -14.7813,0.9688 l 0,237.5625 c 4.8806,0.1354 9.856,0.2008 14.7813,0.1875 l 0,-238.7188 z m -44.375,0.1876 0,236.2187 c 0.7707,0.097 1.5413,0.2195 2.3125,0.3125 3.7673,0.454 8.0137,0.7975 12.5,1.0937 l 0,-236.7812 c -5.1646,-0.1238 -10.202,-0.399 -14.8125,-0.8437 z m -399.28133,17.4374 c -0.3991,0.6297 -0.7844,1.2535 -1.0937,1.8125 -1.0517,1.9009 -3.4265,6.1376 -5.2813,9.4063 -3.3099,5.8333 -6.0349,11.147 -8.4062,16.3125 l 0,176.25 c 1.7029,3.0997 3.3811,5.8454 4.4688,7.1875 1.1868,1.4647 3.3953,4.3316 4.9062,6.375 1.5603,2.11 3.3768,4.1917 5.4062,6.1875 l 0,-223.5313 z m -29.5937,73.75 c -1.8319,8.8847 -3.6388,19.2931 -4.0937,24.5625 -1.55,17.9551 -0.3952,47.8094 2.2812,58.75 0.4418,1.806 1.2576,5.4226 1.8125,8.0313 l 0,-91.3438 z"
         style="fill:#ef3e42;fill-opacity:1;stroke:#ef3e42;stroke-opacity:1" />
    </g>
  </g>
  <g
     inkscape:groupmode="layer"
     id="layer3"
     inkscape:label="stri[eys"
     style="display:inline"
     transform="translate(-1.0490417e-5,547.63781)" />
</svg>
